<mxfile host="65bd71144e">
    <diagram id="ASTWp4ZXTidoFe2xOwB_" name="1b">
        <mxGraphModel dx="979" dy="662" grid="1" gridSize="10" guides="1" tooltips="1" connect="1" arrows="1" fold="1" page="1" pageScale="1" pageWidth="827" pageHeight="1169" math="0" shadow="0">
            <root>
                <mxCell id="0"/>
                <mxCell id="1" parent="0"/>
                <mxCell id="2" value="房屋買賣銷售系統" style="swimlane;startSize=23;" vertex="1" parent="1">
                    <mxGeometry x="290" y="60" width="256" height="680" as="geometry"/>
                </mxCell>
                <mxCell id="3" value="" style="ellipse;whiteSpace=wrap;html=1;" vertex="1" parent="2">
                    <mxGeometry x="43" y="37.5" width="170" height="82.5" as="geometry"/>
                </mxCell>
                <mxCell id="4" value="" style="ellipse;whiteSpace=wrap;html=1;" vertex="1" parent="2">
                    <mxGeometry x="43" y="130" width="170" height="82.5" as="geometry"/>
                </mxCell>
                <mxCell id="5" value="" style="ellipse;whiteSpace=wrap;html=1;" vertex="1" parent="2">
                    <mxGeometry x="43" y="220" width="170" height="82.5" as="geometry"/>
                </mxCell>
                <mxCell id="6" value="" style="ellipse;whiteSpace=wrap;html=1;" vertex="1" parent="2">
                    <mxGeometry x="43" y="310" width="170" height="82.5" as="geometry"/>
                </mxCell>
                <mxCell id="7" value="" style="ellipse;whiteSpace=wrap;html=1;" vertex="1" parent="2">
                    <mxGeometry x="43" y="400" width="170" height="82.5" as="geometry"/>
                </mxCell>
                <mxCell id="8" value="" style="ellipse;whiteSpace=wrap;html=1;" vertex="1" parent="2">
                    <mxGeometry x="43" y="492" width="170" height="82.5" as="geometry"/>
                </mxCell>
                <mxCell id="9" value="" style="ellipse;whiteSpace=wrap;html=1;" vertex="1" parent="2">
                    <mxGeometry x="43" y="580" width="170" height="82.5" as="geometry"/>
                </mxCell>
                <mxCell id="10" value="&lt;div style=&quot;color: rgb(204, 204, 204); background-color: rgb(31, 31, 31); font-family: Consolas, &amp;quot;Courier New&amp;quot;, monospace; font-size: 15px; line-height: 19px;&quot;&gt;&lt;div style=&quot;font-size: 14px; line-height: 19px;&quot;&gt;買家填寫資料後並預約申請提交&lt;/div&gt;&lt;/div&gt;" style="text;strokeColor=none;align=center;fillColor=none;html=1;verticalAlign=middle;whiteSpace=wrap;rounded=0;fontSize=15;" vertex="1" parent="2">
                    <mxGeometry x="72" y="63.75" width="112" height="30" as="geometry"/>
                </mxCell>
                <mxCell id="11" value="&lt;div style=&quot;color: rgb(204, 204, 204); background-color: rgb(31, 31, 31); font-family: Consolas, &amp;quot;Courier New&amp;quot;, monospace; line-height: 19px; font-size: 14px;&quot;&gt;&lt;div style=&quot;line-height: 19px;&quot;&gt;即時申請參觀的買家並進行接待人員分配&lt;/div&gt;&lt;/div&gt;" style="text;strokeColor=none;align=center;fillColor=none;html=1;verticalAlign=middle;whiteSpace=wrap;rounded=0;fontSize=14;" vertex="1" parent="2">
                    <mxGeometry x="61" y="156.25" width="134" height="30" as="geometry"/>
                </mxCell>
                <mxCell id="12" value="&lt;div style=&quot;color: rgb(204, 204, 204); background-color: rgb(31, 31, 31); font-family: Consolas, &amp;quot;Courier New&amp;quot;, monospace; line-height: 19px; font-size: 14px;&quot;&gt;&lt;div style=&quot;line-height: 19px;&quot;&gt;更新取消預約並確保相關人員獲得最新資訊&lt;/div&gt;&lt;/div&gt;" style="text;strokeColor=none;align=center;fillColor=none;html=1;verticalAlign=middle;whiteSpace=wrap;rounded=0;fontSize=14;" vertex="1" parent="2">
                    <mxGeometry x="73.5" y="248" width="106.5" height="30" as="geometry"/>
                </mxCell>
                <mxCell id="13" value="&lt;div style=&quot;color: rgb(204, 204, 204); background-color: rgb(31, 31, 31); font-family: Consolas, &amp;quot;Courier New&amp;quot;, monospace; line-height: 19px; font-size: 15px;&quot;&gt;&lt;div style=&quot;line-height: 19px; font-size: 15px;&quot;&gt;&lt;div style=&quot;font-size: 14px; line-height: 19px;&quot;&gt;審核買家申請並分配即時參觀&lt;/div&gt;&lt;/div&gt;&lt;/div&gt;" style="text;strokeColor=none;align=center;fillColor=none;html=1;verticalAlign=middle;whiteSpace=wrap;rounded=0;fontSize=15;" vertex="1" parent="2">
                    <mxGeometry x="74.87" y="336.25" width="108" height="30" as="geometry"/>
                </mxCell>
                <mxCell id="14" value="&lt;div style=&quot;color: rgb(204, 204, 204); background-color: rgb(31, 31, 31); font-family: Consolas, &amp;quot;Courier New&amp;quot;, monospace; font-size: 14px; line-height: 19px;&quot;&gt;&lt;div style=&quot;line-height: 19px;&quot;&gt;接待買家並參觀房屋，提供優質服務&lt;/div&gt;&lt;/div&gt;" style="text;strokeColor=none;align=center;fillColor=none;html=1;verticalAlign=middle;whiteSpace=wrap;rounded=0;fontSize=15;" vertex="1" parent="2">
                    <mxGeometry x="64.37" y="426.25" width="129" height="30" as="geometry"/>
                </mxCell>
                <mxCell id="15" value="&lt;div style=&quot;color: rgb(204, 204, 204); background-color: rgb(31, 31, 31); font-family: Consolas, &amp;quot;Courier New&amp;quot;, monospace; font-size: 14px; line-height: 19px;&quot;&gt;&lt;div style=&quot;line-height: 19px;&quot;&gt;處理取消申請並通知申請結果&lt;/div&gt;&lt;/div&gt;" style="text;strokeColor=none;align=center;fillColor=none;html=1;verticalAlign=middle;whiteSpace=wrap;rounded=0;fontSize=15;" vertex="1" parent="2">
                    <mxGeometry x="70.37" y="518.25" width="117" height="30" as="geometry"/>
                </mxCell>
                <mxCell id="16" value="&lt;div style=&quot;color: rgb(204, 204, 204); background-color: rgb(31, 31, 31); font-family: Consolas, &amp;quot;Courier New&amp;quot;, monospace; font-size: 14px; line-height: 19px;&quot;&gt;&lt;div style=&quot;line-height: 19px;&quot;&gt;提供相關資訊並瞭解市場和客戶需求&lt;/div&gt;&lt;/div&gt;" style="text;strokeColor=none;align=center;fillColor=none;html=1;verticalAlign=middle;whiteSpace=wrap;rounded=0;fontSize=15;" vertex="1" parent="2">
                    <mxGeometry x="67.94" y="606.25" width="120.13" height="30" as="geometry"/>
                </mxCell>
                <mxCell id="17" value="" style="endArrow=none;html=1;fontSize=15;entryX=0;entryY=0.5;entryDx=0;entryDy=0;" edge="1" parent="2" target="3">
                    <mxGeometry width="50" height="50" relative="1" as="geometry">
                        <mxPoint x="-106.00000000000023" y="193.75" as="sourcePoint"/>
                        <mxPoint x="33.99999999999977" y="63.749999999999886" as="targetPoint"/>
                    </mxGeometry>
                </mxCell>
                <mxCell id="18" value="" style="endArrow=none;html=1;fontSize=15;entryX=0;entryY=0.5;entryDx=0;entryDy=0;" edge="1" parent="2" target="7">
                    <mxGeometry width="50" height="50" relative="1" as="geometry">
                        <mxPoint x="-94.81000000000023" y="492" as="sourcePoint"/>
                        <mxPoint x="42.99999999999994" y="202.49" as="targetPoint"/>
                    </mxGeometry>
                </mxCell>
                <mxCell id="19" value="&lt;div style=&quot;color: rgb(204, 204, 204); background-color: rgb(31, 31, 31); font-family: Consolas, &amp;quot;Courier New&amp;quot;, monospace; font-size: 14px; line-height: 19px;&quot;&gt;預約型買家&lt;/div&gt;" style="shape=umlActor;verticalLabelPosition=bottom;verticalAlign=top;html=1;outlineConnect=0;" vertex="1" parent="1">
                    <mxGeometry x="104" y="160" width="80" height="150" as="geometry"/>
                </mxCell>
                <mxCell id="20" value="&lt;div style=&quot;color: rgb(204, 204, 204); background-color: rgb(31, 31, 31); font-family: Consolas, &amp;quot;Courier New&amp;quot;, monospace; font-size: 14px; line-height: 19px;&quot;&gt;&lt;div style=&quot;line-height: 19px;&quot;&gt;現場即時參觀買家&lt;/div&gt;&lt;/div&gt;" style="shape=umlActor;verticalLabelPosition=bottom;verticalAlign=top;html=1;outlineConnect=0;" vertex="1" parent="1">
                    <mxGeometry x="104" y="440" width="80" height="150" as="geometry"/>
                </mxCell>
                <mxCell id="21" value="&lt;div style=&quot;color: rgb(204, 204, 204); background-color: rgb(31, 31, 31); font-family: Consolas, &amp;quot;Courier New&amp;quot;, monospace; font-size: 14px; line-height: 19px;&quot;&gt;&lt;div style=&quot;line-height: 19px;&quot;&gt;&lt;div style=&quot;line-height: 19px;&quot;&gt;代銷管理者&lt;/div&gt;&lt;/div&gt;&lt;/div&gt;" style="shape=umlActor;verticalLabelPosition=bottom;verticalAlign=top;html=1;outlineConnect=0;" vertex="1" parent="1">
                    <mxGeometry x="644" y="100" width="80" height="150" as="geometry"/>
                </mxCell>
                <mxCell id="22" value="&lt;div style=&quot;color: rgb(204, 204, 204); background-color: rgb(31, 31, 31); font-family: Consolas, &amp;quot;Courier New&amp;quot;, monospace; font-size: 14px; line-height: 19px;&quot;&gt;&lt;div style=&quot;line-height: 19px;&quot;&gt;&lt;div style=&quot;line-height: 19px;&quot;&gt;代銷團隊&lt;/div&gt;&lt;/div&gt;&lt;/div&gt;" style="shape=umlActor;verticalLabelPosition=bottom;verticalAlign=top;html=1;outlineConnect=0;" vertex="1" parent="1">
                    <mxGeometry x="644" y="310" width="80" height="150" as="geometry"/>
                </mxCell>
                <mxCell id="23" value="&lt;div style=&quot;color: rgb(204, 204, 204); background-color: rgb(31, 31, 31); font-family: Consolas, &amp;quot;Courier New&amp;quot;, monospace; font-size: 14px; line-height: 19px;&quot;&gt;&lt;div style=&quot;line-height: 19px;&quot;&gt;&lt;div style=&quot;line-height: 19px;&quot;&gt;房屋開發商&lt;/div&gt;&lt;/div&gt;&lt;/div&gt;" style="shape=umlActor;verticalLabelPosition=bottom;verticalAlign=top;html=1;outlineConnect=0;" vertex="1" parent="1">
                    <mxGeometry x="644" y="530" width="80" height="150" as="geometry"/>
                </mxCell>
                <mxCell id="24" value="" style="endArrow=none;html=1;fontSize=15;" edge="1" parent="1">
                    <mxGeometry width="50" height="50" relative="1" as="geometry">
                        <mxPoint x="504" y="670" as="sourcePoint"/>
                        <mxPoint x="634" y="610" as="targetPoint"/>
                    </mxGeometry>
                </mxCell>
                <mxCell id="25" value="" style="endArrow=none;html=1;fontSize=15;" edge="1" parent="1">
                    <mxGeometry width="50" height="50" relative="1" as="geometry">
                        <mxPoint x="503.9999999999998" y="580" as="sourcePoint"/>
                        <mxPoint x="634" y="410" as="targetPoint"/>
                    </mxGeometry>
                </mxCell>
                <mxCell id="26" value="" style="endArrow=none;html=1;fontSize=15;" edge="1" parent="1">
                    <mxGeometry width="50" height="50" relative="1" as="geometry">
                        <mxPoint x="503.9999999999998" y="320" as="sourcePoint"/>
                        <mxPoint x="634" y="179.9999999999999" as="targetPoint"/>
                    </mxGeometry>
                </mxCell>
                <mxCell id="27" value="" style="endArrow=none;html=1;fontSize=15;entryX=-0.007;entryY=0.612;entryDx=0;entryDy=0;entryPerimeter=0;" edge="1" parent="1" target="4">
                    <mxGeometry width="50" height="50" relative="1" as="geometry">
                        <mxPoint x="193.99999999999977" y="530" as="sourcePoint"/>
                        <mxPoint x="343" y="414.9999999999999" as="targetPoint"/>
                    </mxGeometry>
                </mxCell>
                <mxCell id="28" value="" style="endArrow=none;html=1;fontSize=15;" edge="1" parent="1">
                    <mxGeometry width="50" height="50" relative="1" as="geometry">
                        <mxPoint x="503.9999999999998" y="410" as="sourcePoint"/>
                        <mxPoint x="634" y="199.9999999999999" as="targetPoint"/>
                    </mxGeometry>
                </mxCell>
            </root>
        </mxGraphModel>
    </diagram>
    <diagram id="PoDp55qjBV_Y4psqgh0J" name="1c">
        <mxGraphModel dx="979" dy="662" grid="1" gridSize="10" guides="1" tooltips="1" connect="1" arrows="1" fold="1" page="1" pageScale="1" pageWidth="827" pageHeight="1169" math="0" shadow="0">
            <root>
                <mxCell id="0"/>
                <mxCell id="1" parent="0"/>
                <mxCell id="frMYzxhdbAOCGzb6YcMg-1" value="" style="rounded=0;whiteSpace=wrap;html=1;" vertex="1" parent="1">
                    <mxGeometry x="84" y="160" width="660" height="570" as="geometry"/>
                </mxCell>
                <mxCell id="frMYzxhdbAOCGzb6YcMg-2" value="&lt;font style=&quot;font-size: 22px;&quot;&gt;買家&lt;/font&gt;" style="text;strokeColor=none;align=center;fillColor=none;html=1;verticalAlign=middle;whiteSpace=wrap;rounded=0;" vertex="1" parent="1">
                    <mxGeometry x="154" y="186" width="60" height="30" as="geometry"/>
                </mxCell>
                <mxCell id="frMYzxhdbAOCGzb6YcMg-3" value="&lt;font style=&quot;font-size: 22px;&quot;&gt;代銷管理員&lt;/font&gt;" style="text;strokeColor=none;align=center;fillColor=none;html=1;verticalAlign=middle;whiteSpace=wrap;rounded=0;" vertex="1" parent="1">
                    <mxGeometry x="349" y="186" width="120" height="30" as="geometry"/>
                </mxCell>
                <mxCell id="frMYzxhdbAOCGzb6YcMg-4" value="&lt;font style=&quot;font-size: 22px;&quot;&gt;接待人員&lt;/font&gt;" style="text;strokeColor=none;align=center;fillColor=none;html=1;verticalAlign=middle;whiteSpace=wrap;rounded=0;" vertex="1" parent="1">
                    <mxGeometry x="584" y="186" width="90" height="30" as="geometry"/>
                </mxCell>
                <mxCell id="frMYzxhdbAOCGzb6YcMg-5" value="" style="group" vertex="1" connectable="0" parent="1">
                    <mxGeometry x="134" y="390" width="110" height="50" as="geometry"/>
                </mxCell>
                <mxCell id="frMYzxhdbAOCGzb6YcMg-6" value="" style="whiteSpace=wrap;html=1;fontSize=22;" vertex="1" parent="frMYzxhdbAOCGzb6YcMg-5">
                    <mxGeometry width="110" height="50" as="geometry"/>
                </mxCell>
                <mxCell id="frMYzxhdbAOCGzb6YcMg-7" value="&lt;div style=&quot;color: rgb(204, 204, 204); background-color: rgb(31, 31, 31); font-family: Consolas, &amp;quot;Courier New&amp;quot;, monospace; line-height: 19px;&quot;&gt;&lt;font style=&quot;font-size: 15px;&quot;&gt;預約申請提交&lt;/font&gt;&lt;/div&gt;" style="text;strokeColor=none;align=center;fillColor=none;html=1;verticalAlign=middle;whiteSpace=wrap;rounded=0;fontSize=22;" vertex="1" parent="frMYzxhdbAOCGzb6YcMg-5">
                    <mxGeometry x="5" y="10" width="100" height="30" as="geometry"/>
                </mxCell>
                <mxCell id="frMYzxhdbAOCGzb6YcMg-8" value="" style="line;strokeWidth=1;direction=south;html=1;fontSize=15;" vertex="1" parent="1">
                    <mxGeometry x="290" y="160" width="10" height="570" as="geometry"/>
                </mxCell>
                <mxCell id="frMYzxhdbAOCGzb6YcMg-9" value="" style="line;strokeWidth=1;direction=south;html=1;fontSize=15;" vertex="1" parent="1">
                    <mxGeometry x="524" y="160" width="10" height="570" as="geometry"/>
                </mxCell>
                <mxCell id="frMYzxhdbAOCGzb6YcMg-10" value="" style="line;strokeWidth=1;html=1;perimeter=backbonePerimeter;points=[];outlineConnect=0;fontSize=15;" vertex="1" parent="1">
                    <mxGeometry x="84" y="230" width="660" height="10" as="geometry"/>
                </mxCell>
                <mxCell id="frMYzxhdbAOCGzb6YcMg-11" value="" style="edgeStyle=none;orthogonalLoop=1;jettySize=auto;html=1;fontSize=15;strokeWidth=1;" edge="1" parent="1">
                    <mxGeometry width="100" relative="1" as="geometry">
                        <mxPoint x="244" y="414.5" as="sourcePoint"/>
                        <mxPoint x="354" y="415" as="targetPoint"/>
                        <Array as="points"/>
                    </mxGeometry>
                </mxCell>
                <mxCell id="frMYzxhdbAOCGzb6YcMg-12" value="" style="edgeStyle=none;orthogonalLoop=1;jettySize=auto;html=1;strokeWidth=1;fontSize=15;" edge="1" parent="1">
                    <mxGeometry width="100" relative="1" as="geometry">
                        <mxPoint x="413" y="440" as="sourcePoint"/>
                        <mxPoint x="414" y="500" as="targetPoint"/>
                        <Array as="points"/>
                    </mxGeometry>
                </mxCell>
                <mxCell id="frMYzxhdbAOCGzb6YcMg-13" value="" style="ellipse;whiteSpace=wrap;html=1;strokeWidth=1;fontSize=15;" vertex="1" parent="1">
                    <mxGeometry x="374" y="500" width="80" height="80" as="geometry"/>
                </mxCell>
                <mxCell id="frMYzxhdbAOCGzb6YcMg-14" value="" style="edgeStyle=none;orthogonalLoop=1;jettySize=auto;html=1;strokeWidth=1;fontSize=15;" edge="1" parent="1">
                    <mxGeometry width="100" relative="1" as="geometry">
                        <mxPoint x="413.5" y="580" as="sourcePoint"/>
                        <mxPoint x="414.5" y="640" as="targetPoint"/>
                        <Array as="points"/>
                    </mxGeometry>
                </mxCell>
                <mxCell id="frMYzxhdbAOCGzb6YcMg-15" value="" style="group" vertex="1" connectable="0" parent="1">
                    <mxGeometry x="364" y="640" width="110" height="50" as="geometry"/>
                </mxCell>
                <mxCell id="frMYzxhdbAOCGzb6YcMg-16" value="" style="whiteSpace=wrap;html=1;fontSize=22;" vertex="1" parent="frMYzxhdbAOCGzb6YcMg-15">
                    <mxGeometry width="110" height="50" as="geometry"/>
                </mxCell>
                <mxCell id="frMYzxhdbAOCGzb6YcMg-17" value="&lt;div style=&quot;color: rgb(204, 204, 204); background-color: rgb(31, 31, 31); font-family: Consolas, &amp;quot;Courier New&amp;quot;, monospace; line-height: 19px;&quot;&gt;&lt;font style=&quot;font-size: 15px;&quot;&gt;重新填寫&lt;/font&gt;&lt;/div&gt;" style="text;strokeColor=none;align=center;fillColor=none;html=1;verticalAlign=middle;whiteSpace=wrap;rounded=0;fontSize=22;" vertex="1" parent="frMYzxhdbAOCGzb6YcMg-15">
                    <mxGeometry x="5" y="10" width="100" height="30" as="geometry"/>
                </mxCell>
                <mxCell id="frMYzxhdbAOCGzb6YcMg-18" value="" style="edgeStyle=none;orthogonalLoop=1;jettySize=auto;html=1;fontSize=15;strokeWidth=1;entryX=0;entryY=0.5;entryDx=0;entryDy=0;" edge="1" parent="1" target="frMYzxhdbAOCGzb6YcMg-19">
                    <mxGeometry width="100" relative="1" as="geometry">
                        <mxPoint x="454" y="539.5" as="sourcePoint"/>
                        <mxPoint x="574" y="540" as="targetPoint"/>
                        <Array as="points"/>
                    </mxGeometry>
                </mxCell>
                <mxCell id="frMYzxhdbAOCGzb6YcMg-19" value="" style="whiteSpace=wrap;html=1;fontSize=22;" vertex="1" parent="1">
                    <mxGeometry x="584" y="515" width="110" height="50" as="geometry"/>
                </mxCell>
                <mxCell id="frMYzxhdbAOCGzb6YcMg-20" value="&lt;div style=&quot;color: rgb(204, 204, 204); background-color: rgb(31, 31, 31); font-family: Consolas, &amp;quot;Courier New&amp;quot;, monospace; line-height: 19px;&quot;&gt;&lt;font style=&quot;font-size: 15px;&quot;&gt;預約成功&lt;/font&gt;&lt;/div&gt;" style="text;strokeColor=none;align=center;fillColor=none;html=1;verticalAlign=middle;whiteSpace=wrap;rounded=0;fontSize=22;" vertex="1" parent="1">
                    <mxGeometry x="589" y="525" width="100" height="30" as="geometry"/>
                </mxCell>
                <mxCell id="frMYzxhdbAOCGzb6YcMg-21" value="是" style="text;strokeColor=none;align=center;fillColor=none;html=1;verticalAlign=middle;whiteSpace=wrap;rounded=0;strokeWidth=1;fontSize=15;" vertex="1" parent="1">
                    <mxGeometry x="409" y="470" width="45" height="30" as="geometry"/>
                </mxCell>
                <mxCell id="frMYzxhdbAOCGzb6YcMg-22" value="否" style="text;strokeColor=none;align=center;fillColor=none;html=1;verticalAlign=middle;whiteSpace=wrap;rounded=0;strokeWidth=1;fontSize=15;" vertex="1" parent="1">
                    <mxGeometry x="374" y="580" width="45" height="30" as="geometry"/>
                </mxCell>
                <mxCell id="frMYzxhdbAOCGzb6YcMg-23" value="" style="edgeStyle=none;orthogonalLoop=1;jettySize=auto;html=1;strokeWidth=1;fontSize=15;" edge="1" parent="1">
                    <mxGeometry width="100" relative="1" as="geometry">
                        <mxPoint x="638.5" y="565" as="sourcePoint"/>
                        <mxPoint x="639.5" y="625" as="targetPoint"/>
                        <Array as="points"/>
                    </mxGeometry>
                </mxCell>
                <mxCell id="frMYzxhdbAOCGzb6YcMg-24" value="" style="edgeStyle=none;orthogonalLoop=1;jettySize=auto;html=1;fontSize=15;strokeWidth=1;entryX=1;entryY=0.5;entryDx=0;entryDy=0;" edge="1" parent="1" target="frMYzxhdbAOCGzb6YcMg-28">
                    <mxGeometry width="100" relative="1" as="geometry">
                        <mxPoint x="362" y="667" as="sourcePoint"/>
                        <mxPoint x="236" y="665" as="targetPoint"/>
                        <Array as="points"/>
                    </mxGeometry>
                </mxCell>
                <mxCell id="frMYzxhdbAOCGzb6YcMg-25" value="" style="group" vertex="1" connectable="0" parent="1">
                    <mxGeometry x="359" y="390" width="110" height="50" as="geometry"/>
                </mxCell>
                <mxCell id="frMYzxhdbAOCGzb6YcMg-26" value="" style="whiteSpace=wrap;html=1;fontSize=22;" vertex="1" parent="frMYzxhdbAOCGzb6YcMg-25">
                    <mxGeometry width="110" height="50" as="geometry"/>
                </mxCell>
                <mxCell id="frMYzxhdbAOCGzb6YcMg-27" value="&lt;div style=&quot;color: rgb(204, 204, 204); background-color: rgb(31, 31, 31); font-family: Consolas, &amp;quot;Courier New&amp;quot;, monospace; line-height: 19px;&quot;&gt;&lt;font style=&quot;font-size: 15px;&quot;&gt;確認申請資料是否填寫正確&lt;/font&gt;&lt;/div&gt;" style="text;strokeColor=none;align=center;fillColor=none;html=1;verticalAlign=middle;whiteSpace=wrap;rounded=0;fontSize=22;" vertex="1" parent="frMYzxhdbAOCGzb6YcMg-25">
                    <mxGeometry x="5" y="10" width="102.5" height="30" as="geometry"/>
                </mxCell>
                <mxCell id="frMYzxhdbAOCGzb6YcMg-28" value="" style="ellipse;shape=doubleEllipse;whiteSpace=wrap;html=1;aspect=fixed;strokeWidth=1;fontSize=15;" vertex="1" parent="1">
                    <mxGeometry x="144" y="625" width="80" height="80" as="geometry"/>
                </mxCell>
                <mxCell id="frMYzxhdbAOCGzb6YcMg-29" value="" style="ellipse;shape=doubleEllipse;whiteSpace=wrap;html=1;aspect=fixed;strokeWidth=1;fontSize=15;" vertex="1" parent="1">
                    <mxGeometry x="599" y="625" width="80" height="80" as="geometry"/>
                </mxCell>
                <mxCell id="IO7u_1MbENYnHkBpqp6m-1" value="" style="ellipse;whiteSpace=wrap;html=1;strokeWidth=1;fontSize=15;" vertex="1" parent="1">
                    <mxGeometry x="149" y="250" width="80" height="80" as="geometry"/>
                </mxCell>
                <mxCell id="IO7u_1MbENYnHkBpqp6m-2" value="" style="edgeStyle=none;orthogonalLoop=1;jettySize=auto;html=1;strokeWidth=1;fontSize=15;" edge="1" parent="1">
                    <mxGeometry width="100" relative="1" as="geometry">
                        <mxPoint x="188.41" y="330" as="sourcePoint"/>
                        <mxPoint x="189.41" y="390" as="targetPoint"/>
                        <Array as="points"/>
                    </mxGeometry>
                </mxCell>
            </root>
        </mxGraphModel>
    </diagram>
    <diagram id="YNBZmlXG5lnyesX3e9GX" name="1d">
        <mxGraphModel dx="832" dy="563" grid="1" gridSize="10" guides="1" tooltips="1" connect="1" arrows="1" fold="1" page="1" pageScale="1" pageWidth="827" pageHeight="1169" math="0" shadow="0">
            <root>
                <mxCell id="0"/>
                <mxCell id="1" parent="0"/>
                <mxCell id="ubtkdBWnjDronJyRDNzA-1" value="買家" style="swimlane;strokeWidth=1;fontSize=15;" vertex="1" parent="1">
                    <mxGeometry x="60" y="100" width="140" height="100" as="geometry"/>
                </mxCell>
                <mxCell id="ubtkdBWnjDronJyRDNzA-2" value="姓名" style="text;strokeColor=none;align=center;fillColor=none;html=1;verticalAlign=middle;whiteSpace=wrap;rounded=0;strokeWidth=1;fontSize=15;" vertex="1" parent="ubtkdBWnjDronJyRDNzA-1">
                    <mxGeometry x="25" y="30" width="60" height="30" as="geometry"/>
                </mxCell>
                <mxCell id="ubtkdBWnjDronJyRDNzA-3" value="連絡電話" style="text;strokeColor=none;align=center;fillColor=none;html=1;verticalAlign=middle;whiteSpace=wrap;rounded=0;strokeWidth=1;fontSize=15;" vertex="1" parent="ubtkdBWnjDronJyRDNzA-1">
                    <mxGeometry x="35" y="65" width="70" height="30" as="geometry"/>
                </mxCell>
                <mxCell id="ubtkdBWnjDronJyRDNzA-4" value="" style="group;strokeWidth=2;" vertex="1" connectable="0" parent="ubtkdBWnjDronJyRDNzA-1">
                    <mxGeometry x="10" y="35" width="20" height="20" as="geometry"/>
                </mxCell>
                <mxCell id="ubtkdBWnjDronJyRDNzA-5" value="" style="verticalLabelPosition=bottom;shadow=0;dashed=0;align=center;html=1;verticalAlign=top;strokeWidth=1;shape=mxgraph.mockup.markup.line;strokeColor=#999999;fontSize=15;fillColor=default;" vertex="1" parent="ubtkdBWnjDronJyRDNzA-4">
                    <mxGeometry y="8" width="20" height="4" as="geometry"/>
                </mxCell>
                <mxCell id="ubtkdBWnjDronJyRDNzA-6" value="" style="verticalLabelPosition=bottom;shadow=0;dashed=0;align=center;html=1;verticalAlign=top;strokeWidth=1;shape=mxgraph.mockup.markup.line;strokeColor=#999999;fontSize=15;fillColor=default;" vertex="1" parent="ubtkdBWnjDronJyRDNzA-4">
                    <mxGeometry y="8" width="20" height="4" as="geometry"/>
                </mxCell>
                <mxCell id="ubtkdBWnjDronJyRDNzA-7" value="" style="verticalLabelPosition=bottom;shadow=0;dashed=0;align=center;html=1;verticalAlign=top;strokeWidth=1;shape=mxgraph.mockup.markup.line;strokeColor=#999999;direction=north;fontSize=15;fillColor=default;" vertex="1" parent="ubtkdBWnjDronJyRDNzA-4">
                    <mxGeometry x="8" width="4" height="20" as="geometry"/>
                </mxCell>
                <mxCell id="ubtkdBWnjDronJyRDNzA-8" value="" style="group;strokeWidth=2;" vertex="1" connectable="0" parent="ubtkdBWnjDronJyRDNzA-1">
                    <mxGeometry x="10" y="65" width="20" height="20" as="geometry"/>
                </mxCell>
                <mxCell id="ubtkdBWnjDronJyRDNzA-9" value="" style="verticalLabelPosition=bottom;shadow=0;dashed=0;align=center;html=1;verticalAlign=top;strokeWidth=1;shape=mxgraph.mockup.markup.line;strokeColor=#999999;fontSize=15;fillColor=default;" vertex="1" parent="ubtkdBWnjDronJyRDNzA-8">
                    <mxGeometry y="8" width="20" height="4" as="geometry"/>
                </mxCell>
                <mxCell id="ubtkdBWnjDronJyRDNzA-10" value="" style="verticalLabelPosition=bottom;shadow=0;dashed=0;align=center;html=1;verticalAlign=top;strokeWidth=1;shape=mxgraph.mockup.markup.line;strokeColor=#999999;fontSize=15;fillColor=default;" vertex="1" parent="ubtkdBWnjDronJyRDNzA-8">
                    <mxGeometry y="8" width="20" height="4" as="geometry"/>
                </mxCell>
                <mxCell id="ubtkdBWnjDronJyRDNzA-11" value="" style="verticalLabelPosition=bottom;shadow=0;dashed=0;align=center;html=1;verticalAlign=top;strokeWidth=1;shape=mxgraph.mockup.markup.line;strokeColor=#999999;direction=north;fontSize=15;fillColor=default;" vertex="1" parent="ubtkdBWnjDronJyRDNzA-8">
                    <mxGeometry x="8" width="4" height="20" as="geometry"/>
                </mxCell>
                <mxCell id="ubtkdBWnjDronJyRDNzA-12" value="" style="verticalLabelPosition=bottom;shadow=0;dashed=0;align=center;html=1;verticalAlign=top;strokeWidth=1;shape=mxgraph.mockup.markup.line;strokeColor=#999999;fontSize=15;fillColor=default;" vertex="1" parent="1">
                    <mxGeometry x="200" y="150" width="130" height="20" as="geometry"/>
                </mxCell>
                <mxCell id="ubtkdBWnjDronJyRDNzA-13" value="" style="verticalLabelPosition=bottom;shadow=0;dashed=0;align=center;html=1;verticalAlign=top;strokeWidth=1;shape=mxgraph.mockup.markup.line;strokeColor=#999999;direction=north;fontSize=15;fillColor=default;" vertex="1" parent="1">
                    <mxGeometry x="390" y="240" width="20" height="135" as="geometry"/>
                </mxCell>
                <mxCell id="ubtkdBWnjDronJyRDNzA-14" value="申請表" style="swimlane;strokeWidth=1;fontSize=15;startSize=23;" vertex="1" parent="1">
                    <mxGeometry x="330" y="80" width="140" height="160" as="geometry"/>
                </mxCell>
                <mxCell id="ubtkdBWnjDronJyRDNzA-15" value="姓名" style="text;strokeColor=none;align=center;fillColor=none;html=1;verticalAlign=middle;whiteSpace=wrap;rounded=0;strokeWidth=1;fontSize=15;" vertex="1" parent="ubtkdBWnjDronJyRDNzA-14">
                    <mxGeometry x="25" y="30" width="60" height="30" as="geometry"/>
                </mxCell>
                <mxCell id="ubtkdBWnjDronJyRDNzA-16" value="連絡電話" style="text;strokeColor=none;align=center;fillColor=none;html=1;verticalAlign=middle;whiteSpace=wrap;rounded=0;strokeWidth=1;fontSize=15;" vertex="1" parent="ubtkdBWnjDronJyRDNzA-14">
                    <mxGeometry x="35" y="65" width="70" height="30" as="geometry"/>
                </mxCell>
                <mxCell id="ubtkdBWnjDronJyRDNzA-17" value="" style="group;strokeWidth=2;" vertex="1" connectable="0" parent="ubtkdBWnjDronJyRDNzA-14">
                    <mxGeometry x="10" y="35" width="20" height="20" as="geometry"/>
                </mxCell>
                <mxCell id="ubtkdBWnjDronJyRDNzA-18" value="" style="verticalLabelPosition=bottom;shadow=0;dashed=0;align=center;html=1;verticalAlign=top;strokeWidth=1;shape=mxgraph.mockup.markup.line;strokeColor=#999999;fontSize=15;fillColor=default;" vertex="1" parent="ubtkdBWnjDronJyRDNzA-17">
                    <mxGeometry y="8" width="20" height="4" as="geometry"/>
                </mxCell>
                <mxCell id="ubtkdBWnjDronJyRDNzA-19" value="" style="verticalLabelPosition=bottom;shadow=0;dashed=0;align=center;html=1;verticalAlign=top;strokeWidth=1;shape=mxgraph.mockup.markup.line;strokeColor=#999999;fontSize=15;fillColor=default;" vertex="1" parent="ubtkdBWnjDronJyRDNzA-17">
                    <mxGeometry y="8" width="20" height="4" as="geometry"/>
                </mxCell>
                <mxCell id="ubtkdBWnjDronJyRDNzA-20" value="" style="verticalLabelPosition=bottom;shadow=0;dashed=0;align=center;html=1;verticalAlign=top;strokeWidth=1;shape=mxgraph.mockup.markup.line;strokeColor=#999999;direction=north;fontSize=15;fillColor=default;" vertex="1" parent="ubtkdBWnjDronJyRDNzA-17">
                    <mxGeometry x="8" width="4" height="20" as="geometry"/>
                </mxCell>
                <mxCell id="ubtkdBWnjDronJyRDNzA-21" value="" style="group;strokeWidth=2;" vertex="1" connectable="0" parent="ubtkdBWnjDronJyRDNzA-14">
                    <mxGeometry x="10" y="65" width="20" height="20" as="geometry"/>
                </mxCell>
                <mxCell id="ubtkdBWnjDronJyRDNzA-22" value="" style="verticalLabelPosition=bottom;shadow=0;dashed=0;align=center;html=1;verticalAlign=top;strokeWidth=1;shape=mxgraph.mockup.markup.line;strokeColor=#999999;fontSize=15;fillColor=default;" vertex="1" parent="ubtkdBWnjDronJyRDNzA-21">
                    <mxGeometry y="8" width="20" height="4" as="geometry"/>
                </mxCell>
                <mxCell id="ubtkdBWnjDronJyRDNzA-23" value="" style="verticalLabelPosition=bottom;shadow=0;dashed=0;align=center;html=1;verticalAlign=top;strokeWidth=1;shape=mxgraph.mockup.markup.line;strokeColor=#999999;fontSize=15;fillColor=default;" vertex="1" parent="ubtkdBWnjDronJyRDNzA-21">
                    <mxGeometry y="8" width="20" height="4" as="geometry"/>
                </mxCell>
                <mxCell id="ubtkdBWnjDronJyRDNzA-24" value="" style="verticalLabelPosition=bottom;shadow=0;dashed=0;align=center;html=1;verticalAlign=top;strokeWidth=1;shape=mxgraph.mockup.markup.line;strokeColor=#999999;direction=north;fontSize=15;fillColor=default;" vertex="1" parent="ubtkdBWnjDronJyRDNzA-21">
                    <mxGeometry x="8" width="4" height="20" as="geometry"/>
                </mxCell>
                <mxCell id="ubtkdBWnjDronJyRDNzA-25" value="" style="group;strokeWidth=2;" vertex="1" connectable="0" parent="ubtkdBWnjDronJyRDNzA-14">
                    <mxGeometry x="10" y="95" width="20" height="20" as="geometry"/>
                </mxCell>
                <mxCell id="ubtkdBWnjDronJyRDNzA-26" value="" style="verticalLabelPosition=bottom;shadow=0;dashed=0;align=center;html=1;verticalAlign=top;strokeWidth=1;shape=mxgraph.mockup.markup.line;strokeColor=#999999;fontSize=15;fillColor=default;" vertex="1" parent="ubtkdBWnjDronJyRDNzA-25">
                    <mxGeometry y="8" width="20" height="4" as="geometry"/>
                </mxCell>
                <mxCell id="ubtkdBWnjDronJyRDNzA-27" value="" style="verticalLabelPosition=bottom;shadow=0;dashed=0;align=center;html=1;verticalAlign=top;strokeWidth=1;shape=mxgraph.mockup.markup.line;strokeColor=#999999;fontSize=15;fillColor=default;" vertex="1" parent="ubtkdBWnjDronJyRDNzA-25">
                    <mxGeometry y="8" width="20" height="4" as="geometry"/>
                </mxCell>
                <mxCell id="ubtkdBWnjDronJyRDNzA-28" value="" style="verticalLabelPosition=bottom;shadow=0;dashed=0;align=center;html=1;verticalAlign=top;strokeWidth=1;shape=mxgraph.mockup.markup.line;strokeColor=#999999;direction=north;fontSize=15;fillColor=default;" vertex="1" parent="ubtkdBWnjDronJyRDNzA-25">
                    <mxGeometry x="8" width="4" height="20" as="geometry"/>
                </mxCell>
                <mxCell id="ubtkdBWnjDronJyRDNzA-29" value="" style="group;strokeWidth=2;" vertex="1" connectable="0" parent="ubtkdBWnjDronJyRDNzA-14">
                    <mxGeometry x="10" y="130" width="20" height="20" as="geometry"/>
                </mxCell>
                <mxCell id="ubtkdBWnjDronJyRDNzA-30" value="" style="verticalLabelPosition=bottom;shadow=0;dashed=0;align=center;html=1;verticalAlign=top;strokeWidth=1;shape=mxgraph.mockup.markup.line;strokeColor=#999999;fontSize=15;fillColor=default;" vertex="1" parent="ubtkdBWnjDronJyRDNzA-29">
                    <mxGeometry y="8" width="20" height="4" as="geometry"/>
                </mxCell>
                <mxCell id="ubtkdBWnjDronJyRDNzA-31" value="" style="verticalLabelPosition=bottom;shadow=0;dashed=0;align=center;html=1;verticalAlign=top;strokeWidth=1;shape=mxgraph.mockup.markup.line;strokeColor=#999999;fontSize=15;fillColor=default;" vertex="1" parent="ubtkdBWnjDronJyRDNzA-29">
                    <mxGeometry y="8" width="20" height="4" as="geometry"/>
                </mxCell>
                <mxCell id="ubtkdBWnjDronJyRDNzA-32" value="" style="verticalLabelPosition=bottom;shadow=0;dashed=0;align=center;html=1;verticalAlign=top;strokeWidth=1;shape=mxgraph.mockup.markup.line;strokeColor=#999999;direction=north;fontSize=15;fillColor=default;" vertex="1" parent="ubtkdBWnjDronJyRDNzA-29">
                    <mxGeometry x="8" width="4" height="20" as="geometry"/>
                </mxCell>
                <mxCell id="ubtkdBWnjDronJyRDNzA-33" value="預約日期" style="text;strokeColor=none;align=center;fillColor=none;html=1;verticalAlign=middle;whiteSpace=wrap;rounded=0;strokeWidth=1;fontSize=15;" vertex="1" parent="ubtkdBWnjDronJyRDNzA-14">
                    <mxGeometry x="33" y="94" width="70" height="30" as="geometry"/>
                </mxCell>
                <mxCell id="ubtkdBWnjDronJyRDNzA-34" value="預約類別" style="text;strokeColor=none;align=center;fillColor=none;html=1;verticalAlign=middle;whiteSpace=wrap;rounded=0;strokeWidth=1;fontSize=15;" vertex="1" parent="ubtkdBWnjDronJyRDNzA-14">
                    <mxGeometry x="35" y="125" width="70" height="30" as="geometry"/>
                </mxCell>
                <mxCell id="ubtkdBWnjDronJyRDNzA-35" value="1" style="text;strokeColor=none;align=center;fillColor=none;html=1;verticalAlign=middle;whiteSpace=wrap;rounded=0;strokeWidth=2;fontSize=16;" vertex="1" parent="1">
                    <mxGeometry x="283" y="161" width="60" height="30" as="geometry"/>
                </mxCell>
                <mxCell id="ubtkdBWnjDronJyRDNzA-36" value="1..*" style="text;strokeColor=none;align=center;fillColor=none;html=1;verticalAlign=middle;whiteSpace=wrap;rounded=0;strokeWidth=2;fontSize=16;" vertex="1" parent="1">
                    <mxGeometry x="390" y="240" width="60" height="30" as="geometry"/>
                </mxCell>
                <mxCell id="ubtkdBWnjDronJyRDNzA-37" value="1" style="text;strokeColor=none;align=center;fillColor=none;html=1;verticalAlign=middle;whiteSpace=wrap;rounded=0;strokeWidth=2;fontSize=16;" vertex="1" parent="1">
                    <mxGeometry x="184" y="160" width="60" height="30" as="geometry"/>
                </mxCell>
                <mxCell id="ubtkdBWnjDronJyRDNzA-38" value="1" style="text;strokeColor=none;align=center;fillColor=none;html=1;verticalAlign=middle;whiteSpace=wrap;rounded=0;strokeWidth=2;fontSize=16;" vertex="1" parent="1">
                    <mxGeometry x="384" y="345" width="60" height="30" as="geometry"/>
                </mxCell>
                <mxCell id="ubtkdBWnjDronJyRDNzA-39" value="" style="verticalLabelPosition=bottom;shadow=0;dashed=0;align=center;html=1;verticalAlign=top;strokeWidth=1;shape=mxgraph.mockup.markup.line;strokeColor=#999999;fontSize=15;fillColor=default;" vertex="1" parent="1">
                    <mxGeometry x="470" y="430" width="130" height="20" as="geometry"/>
                </mxCell>
                <mxCell id="ubtkdBWnjDronJyRDNzA-40" value="閒置代銷人員" style="swimlane;strokeWidth=1;fontSize=15;startSize=23;" vertex="1" parent="1">
                    <mxGeometry x="600" y="390" width="140" height="100" as="geometry"/>
                </mxCell>
                <mxCell id="ubtkdBWnjDronJyRDNzA-41" value="姓名" style="text;strokeColor=none;align=center;fillColor=none;html=1;verticalAlign=middle;whiteSpace=wrap;rounded=0;strokeWidth=1;fontSize=15;" vertex="1" parent="ubtkdBWnjDronJyRDNzA-40">
                    <mxGeometry x="25" y="30" width="60" height="30" as="geometry"/>
                </mxCell>
                <mxCell id="ubtkdBWnjDronJyRDNzA-42" value="連絡電話" style="text;strokeColor=none;align=center;fillColor=none;html=1;verticalAlign=middle;whiteSpace=wrap;rounded=0;strokeWidth=1;fontSize=15;" vertex="1" parent="ubtkdBWnjDronJyRDNzA-40">
                    <mxGeometry x="35" y="65" width="70" height="30" as="geometry"/>
                </mxCell>
                <mxCell id="ubtkdBWnjDronJyRDNzA-43" value="" style="group;strokeWidth=2;" vertex="1" connectable="0" parent="ubtkdBWnjDronJyRDNzA-40">
                    <mxGeometry x="10" y="35" width="20" height="20" as="geometry"/>
                </mxCell>
                <mxCell id="ubtkdBWnjDronJyRDNzA-44" value="" style="verticalLabelPosition=bottom;shadow=0;dashed=0;align=center;html=1;verticalAlign=top;strokeWidth=1;shape=mxgraph.mockup.markup.line;strokeColor=#999999;fontSize=15;fillColor=default;" vertex="1" parent="ubtkdBWnjDronJyRDNzA-43">
                    <mxGeometry y="8" width="20" height="4" as="geometry"/>
                </mxCell>
                <mxCell id="ubtkdBWnjDronJyRDNzA-45" value="" style="verticalLabelPosition=bottom;shadow=0;dashed=0;align=center;html=1;verticalAlign=top;strokeWidth=1;shape=mxgraph.mockup.markup.line;strokeColor=#999999;fontSize=15;fillColor=default;" vertex="1" parent="ubtkdBWnjDronJyRDNzA-43">
                    <mxGeometry y="8" width="20" height="4" as="geometry"/>
                </mxCell>
                <mxCell id="ubtkdBWnjDronJyRDNzA-46" value="" style="verticalLabelPosition=bottom;shadow=0;dashed=0;align=center;html=1;verticalAlign=top;strokeWidth=1;shape=mxgraph.mockup.markup.line;strokeColor=#999999;direction=north;fontSize=15;fillColor=default;" vertex="1" parent="ubtkdBWnjDronJyRDNzA-43">
                    <mxGeometry x="8" width="4" height="20" as="geometry"/>
                </mxCell>
                <mxCell id="ubtkdBWnjDronJyRDNzA-47" value="" style="group;strokeWidth=2;" vertex="1" connectable="0" parent="ubtkdBWnjDronJyRDNzA-40">
                    <mxGeometry x="10" y="65" width="20" height="20" as="geometry"/>
                </mxCell>
                <mxCell id="ubtkdBWnjDronJyRDNzA-48" value="" style="verticalLabelPosition=bottom;shadow=0;dashed=0;align=center;html=1;verticalAlign=top;strokeWidth=1;shape=mxgraph.mockup.markup.line;strokeColor=#999999;fontSize=15;fillColor=default;" vertex="1" parent="ubtkdBWnjDronJyRDNzA-47">
                    <mxGeometry y="8" width="20" height="4" as="geometry"/>
                </mxCell>
                <mxCell id="ubtkdBWnjDronJyRDNzA-49" value="" style="verticalLabelPosition=bottom;shadow=0;dashed=0;align=center;html=1;verticalAlign=top;strokeWidth=1;shape=mxgraph.mockup.markup.line;strokeColor=#999999;fontSize=15;fillColor=default;" vertex="1" parent="ubtkdBWnjDronJyRDNzA-47">
                    <mxGeometry y="8" width="20" height="4" as="geometry"/>
                </mxCell>
                <mxCell id="ubtkdBWnjDronJyRDNzA-50" value="" style="verticalLabelPosition=bottom;shadow=0;dashed=0;align=center;html=1;verticalAlign=top;strokeWidth=1;shape=mxgraph.mockup.markup.line;strokeColor=#999999;direction=north;fontSize=15;fillColor=default;" vertex="1" parent="ubtkdBWnjDronJyRDNzA-47">
                    <mxGeometry x="8" width="4" height="20" as="geometry"/>
                </mxCell>
                <mxCell id="ubtkdBWnjDronJyRDNzA-51" value="1" style="text;strokeColor=none;align=center;fillColor=none;html=1;verticalAlign=middle;whiteSpace=wrap;rounded=0;strokeWidth=2;fontSize=16;" vertex="1" parent="1">
                    <mxGeometry x="452" y="440" width="60" height="30" as="geometry"/>
                </mxCell>
                <mxCell id="ubtkdBWnjDronJyRDNzA-52" value="1" style="text;strokeColor=none;align=center;fillColor=none;html=1;verticalAlign=middle;whiteSpace=wrap;rounded=0;strokeWidth=2;fontSize=16;" vertex="1" parent="1">
                    <mxGeometry x="550" y="443" width="60" height="30" as="geometry"/>
                </mxCell>
                <mxCell id="ubtkdBWnjDronJyRDNzA-53" value="填寫資料" style="text;strokeColor=none;align=center;fillColor=none;html=1;verticalAlign=middle;whiteSpace=wrap;rounded=0;strokeWidth=2;fontSize=16;" vertex="1" parent="1">
                    <mxGeometry x="254" y="130" width="70" height="30" as="geometry"/>
                </mxCell>
                <mxCell id="ubtkdBWnjDronJyRDNzA-54" value="審核資料" style="text;strokeColor=none;align=center;fillColor=none;html=1;verticalAlign=middle;whiteSpace=wrap;rounded=0;strokeWidth=2;fontSize=16;" vertex="1" parent="1">
                    <mxGeometry x="324" y="343" width="70" height="30" as="geometry"/>
                </mxCell>
                <mxCell id="ubtkdBWnjDronJyRDNzA-55" value="安排" style="text;strokeColor=none;align=center;fillColor=none;html=1;verticalAlign=middle;whiteSpace=wrap;rounded=0;strokeWidth=2;fontSize=16;" vertex="1" parent="1">
                    <mxGeometry x="540" y="410" width="70" height="30" as="geometry"/>
                </mxCell>
                <mxCell id="ubtkdBWnjDronJyRDNzA-56" value="代銷管理員" style="swimlane;strokeWidth=1;fontSize=15;" vertex="1" parent="1">
                    <mxGeometry x="330" y="375" width="140" height="130" as="geometry"/>
                </mxCell>
                <mxCell id="ubtkdBWnjDronJyRDNzA-57" value="姓名" style="text;strokeColor=none;align=center;fillColor=none;html=1;verticalAlign=middle;whiteSpace=wrap;rounded=0;strokeWidth=1;fontSize=15;" vertex="1" parent="ubtkdBWnjDronJyRDNzA-56">
                    <mxGeometry x="25" y="30" width="60" height="30" as="geometry"/>
                </mxCell>
                <mxCell id="ubtkdBWnjDronJyRDNzA-58" value="連絡電話" style="text;strokeColor=none;align=center;fillColor=none;html=1;verticalAlign=middle;whiteSpace=wrap;rounded=0;strokeWidth=1;fontSize=15;" vertex="1" parent="ubtkdBWnjDronJyRDNzA-56">
                    <mxGeometry x="33" y="62" width="70" height="30" as="geometry"/>
                </mxCell>
                <mxCell id="ubtkdBWnjDronJyRDNzA-59" value="" style="group;strokeWidth=2;" vertex="1" connectable="0" parent="ubtkdBWnjDronJyRDNzA-56">
                    <mxGeometry x="10" y="35" width="20" height="20" as="geometry"/>
                </mxCell>
                <mxCell id="ubtkdBWnjDronJyRDNzA-60" value="" style="verticalLabelPosition=bottom;shadow=0;dashed=0;align=center;html=1;verticalAlign=top;strokeWidth=1;shape=mxgraph.mockup.markup.line;strokeColor=#999999;fontSize=15;fillColor=default;" vertex="1" parent="ubtkdBWnjDronJyRDNzA-59">
                    <mxGeometry y="8" width="20" height="4" as="geometry"/>
                </mxCell>
                <mxCell id="ubtkdBWnjDronJyRDNzA-61" value="" style="verticalLabelPosition=bottom;shadow=0;dashed=0;align=center;html=1;verticalAlign=top;strokeWidth=1;shape=mxgraph.mockup.markup.line;strokeColor=#999999;fontSize=15;fillColor=default;" vertex="1" parent="ubtkdBWnjDronJyRDNzA-59">
                    <mxGeometry y="8" width="20" height="4" as="geometry"/>
                </mxCell>
                <mxCell id="ubtkdBWnjDronJyRDNzA-62" value="" style="verticalLabelPosition=bottom;shadow=0;dashed=0;align=center;html=1;verticalAlign=top;strokeWidth=1;shape=mxgraph.mockup.markup.line;strokeColor=#999999;direction=north;fontSize=15;fillColor=default;" vertex="1" parent="ubtkdBWnjDronJyRDNzA-59">
                    <mxGeometry x="8" width="4" height="20" as="geometry"/>
                </mxCell>
                <mxCell id="ubtkdBWnjDronJyRDNzA-63" value="" style="group;strokeWidth=2;" vertex="1" connectable="0" parent="ubtkdBWnjDronJyRDNzA-56">
                    <mxGeometry x="10" y="65" width="20" height="20" as="geometry"/>
                </mxCell>
                <mxCell id="ubtkdBWnjDronJyRDNzA-64" value="" style="verticalLabelPosition=bottom;shadow=0;dashed=0;align=center;html=1;verticalAlign=top;strokeWidth=1;shape=mxgraph.mockup.markup.line;strokeColor=#999999;fontSize=15;fillColor=default;" vertex="1" parent="ubtkdBWnjDronJyRDNzA-63">
                    <mxGeometry y="8" width="20" height="4" as="geometry"/>
                </mxCell>
                <mxCell id="ubtkdBWnjDronJyRDNzA-65" value="" style="verticalLabelPosition=bottom;shadow=0;dashed=0;align=center;html=1;verticalAlign=top;strokeWidth=1;shape=mxgraph.mockup.markup.line;strokeColor=#999999;fontSize=15;fillColor=default;" vertex="1" parent="ubtkdBWnjDronJyRDNzA-63">
                    <mxGeometry y="8" width="20" height="4" as="geometry"/>
                </mxCell>
                <mxCell id="ubtkdBWnjDronJyRDNzA-66" value="" style="verticalLabelPosition=bottom;shadow=0;dashed=0;align=center;html=1;verticalAlign=top;strokeWidth=1;shape=mxgraph.mockup.markup.line;strokeColor=#999999;direction=north;fontSize=15;fillColor=default;" vertex="1" parent="ubtkdBWnjDronJyRDNzA-63">
                    <mxGeometry x="8" width="4" height="20" as="geometry"/>
                </mxCell>
                <mxCell id="ubtkdBWnjDronJyRDNzA-67" value="確認資料" style="text;strokeColor=none;align=center;fillColor=none;html=1;verticalAlign=middle;whiteSpace=wrap;rounded=0;strokeWidth=1;fontSize=15;" vertex="1" parent="ubtkdBWnjDronJyRDNzA-56">
                    <mxGeometry x="35" y="95" width="70" height="30" as="geometry"/>
                </mxCell>
                <mxCell id="ubtkdBWnjDronJyRDNzA-68" value="" style="group;strokeWidth=2;" vertex="1" connectable="0" parent="ubtkdBWnjDronJyRDNzA-56">
                    <mxGeometry x="10" y="100" width="20" height="20" as="geometry"/>
                </mxCell>
                <mxCell id="ubtkdBWnjDronJyRDNzA-69" value="" style="verticalLabelPosition=bottom;shadow=0;dashed=0;align=center;html=1;verticalAlign=top;strokeWidth=1;shape=mxgraph.mockup.markup.line;strokeColor=#999999;fontSize=15;fillColor=default;" vertex="1" parent="ubtkdBWnjDronJyRDNzA-68">
                    <mxGeometry y="8" width="20" height="4" as="geometry"/>
                </mxCell>
                <mxCell id="ubtkdBWnjDronJyRDNzA-70" value="" style="verticalLabelPosition=bottom;shadow=0;dashed=0;align=center;html=1;verticalAlign=top;strokeWidth=1;shape=mxgraph.mockup.markup.line;strokeColor=#999999;fontSize=15;fillColor=default;" vertex="1" parent="ubtkdBWnjDronJyRDNzA-68">
                    <mxGeometry y="8" width="20" height="4" as="geometry"/>
                </mxCell>
                <mxCell id="ubtkdBWnjDronJyRDNzA-71" value="" style="verticalLabelPosition=bottom;shadow=0;dashed=0;align=center;html=1;verticalAlign=top;strokeWidth=1;shape=mxgraph.mockup.markup.line;strokeColor=#999999;direction=north;fontSize=15;fillColor=default;" vertex="1" parent="ubtkdBWnjDronJyRDNzA-68">
                    <mxGeometry x="8" width="4" height="20" as="geometry"/>
                </mxCell>
            </root>
        </mxGraphModel>
    </diagram>
    <diagram id="AscKv5OJ8TlSJ3xA4gjY" name="2b">
        <mxGraphModel dx="1387" dy="938" grid="1" gridSize="10" guides="1" tooltips="1" connect="1" arrows="1" fold="1" page="1" pageScale="1" pageWidth="827" pageHeight="1169" math="0" shadow="0">
            <root>
                <mxCell id="0"/>
                <mxCell id="1" parent="0"/>
                <mxCell id="P1RbP0NbCchUif9m3TLi-1" value="人民普發系統" style="swimlane;" vertex="1" parent="1">
                    <mxGeometry x="256" y="190" width="315" height="870" as="geometry"/>
                </mxCell>
                <mxCell id="P1RbP0NbCchUif9m3TLi-2" value="" style="group" vertex="1" connectable="0" parent="P1RbP0NbCchUif9m3TLi-1">
                    <mxGeometry x="70" y="450" width="175" height="85" as="geometry"/>
                </mxCell>
                <mxCell id="P1RbP0NbCchUif9m3TLi-3" value="" style="ellipse;whiteSpace=wrap;html=1;" vertex="1" parent="P1RbP0NbCchUif9m3TLi-2">
                    <mxGeometry width="175" height="85" as="geometry"/>
                </mxCell>
                <mxCell id="P1RbP0NbCchUif9m3TLi-4" value="&lt;div style=&quot;color: rgb(204, 204, 204); background-color: rgb(31, 31, 31); font-family: Consolas, &amp;quot;Courier New&amp;quot;, monospace; font-size: 14px; line-height: 19px;&quot;&gt;後台系統驗證申請者存在&lt;/div&gt;" style="text;strokeColor=none;align=center;fillColor=none;html=1;verticalAlign=middle;whiteSpace=wrap;rounded=0;" vertex="1" parent="P1RbP0NbCchUif9m3TLi-2">
                    <mxGeometry x="37.5" y="17.5" width="100" height="50" as="geometry"/>
                </mxCell>
                <mxCell id="P1RbP0NbCchUif9m3TLi-5" value="" style="group" vertex="1" connectable="0" parent="P1RbP0NbCchUif9m3TLi-1">
                    <mxGeometry x="70" y="550" width="175" height="85" as="geometry"/>
                </mxCell>
                <mxCell id="P1RbP0NbCchUif9m3TLi-6" value="" style="ellipse;whiteSpace=wrap;html=1;" vertex="1" parent="P1RbP0NbCchUif9m3TLi-5">
                    <mxGeometry width="175" height="85" as="geometry"/>
                </mxCell>
                <mxCell id="P1RbP0NbCchUif9m3TLi-7" value="&lt;div style=&quot;color: rgb(204, 204, 204); background-color: rgb(31, 31, 31); font-family: Consolas, &amp;quot;Courier New&amp;quot;, monospace; font-size: 14px; line-height: 19px;&quot;&gt;後台系統傳送證號至金融機構比對帳戶&lt;/div&gt;" style="text;strokeColor=none;align=center;fillColor=none;html=1;verticalAlign=middle;whiteSpace=wrap;rounded=0;" vertex="1" parent="P1RbP0NbCchUif9m3TLi-5">
                    <mxGeometry x="21.25" y="27.5" width="132.5" height="30" as="geometry"/>
                </mxCell>
                <mxCell id="P1RbP0NbCchUif9m3TLi-8" value="" style="group" vertex="1" connectable="0" parent="P1RbP0NbCchUif9m3TLi-1">
                    <mxGeometry x="70" y="660" width="175" height="85" as="geometry"/>
                </mxCell>
                <mxCell id="P1RbP0NbCchUif9m3TLi-9" value="" style="ellipse;whiteSpace=wrap;html=1;" vertex="1" parent="P1RbP0NbCchUif9m3TLi-8">
                    <mxGeometry width="175" height="85" as="geometry"/>
                </mxCell>
                <mxCell id="P1RbP0NbCchUif9m3TLi-10" value="&lt;div style=&quot;color: rgb(204, 204, 204); background-color: rgb(31, 31, 31); font-family: Consolas, &amp;quot;Courier New&amp;quot;, monospace; font-size: 14px; line-height: 19px;&quot;&gt;後台連線健保局比對資料，確認正確性&lt;/div&gt;" style="text;strokeColor=none;align=center;fillColor=none;html=1;verticalAlign=middle;whiteSpace=wrap;rounded=0;" vertex="1" parent="P1RbP0NbCchUif9m3TLi-8">
                    <mxGeometry x="17.25" y="27.5" width="140.5" height="30" as="geometry"/>
                </mxCell>
                <mxCell id="P1RbP0NbCchUif9m3TLi-11" value="" style="group" vertex="1" connectable="0" parent="P1RbP0NbCchUif9m3TLi-1">
                    <mxGeometry x="70" y="760" width="175" height="85" as="geometry"/>
                </mxCell>
                <mxCell id="P1RbP0NbCchUif9m3TLi-12" value="" style="ellipse;whiteSpace=wrap;html=1;" vertex="1" parent="P1RbP0NbCchUif9m3TLi-11">
                    <mxGeometry width="175" height="85" as="geometry"/>
                </mxCell>
                <mxCell id="P1RbP0NbCchUif9m3TLi-13" value="&lt;div style=&quot;color: rgb(204, 204, 204); background-color: rgb(31, 31, 31); font-family: Consolas, &amp;quot;Courier New&amp;quot;, monospace; font-size: 14px; line-height: 19px;&quot;&gt;&lt;div style=&quot;line-height: 19px;&quot;&gt;通過驗證後，申請者入名單，後台寫入JSON&lt;/div&gt;&lt;/div&gt;" style="text;strokeColor=none;align=center;fillColor=none;html=1;verticalAlign=middle;whiteSpace=wrap;rounded=0;" vertex="1" parent="P1RbP0NbCchUif9m3TLi-11">
                    <mxGeometry x="12.5" y="22.5" width="150" height="40" as="geometry"/>
                </mxCell>
                <mxCell id="P1RbP0NbCchUif9m3TLi-14" value="" style="endArrow=none;html=1;exitX=1;exitY=0.5;exitDx=0;exitDy=0;" edge="1" parent="P1RbP0NbCchUif9m3TLi-1" source="P1RbP0NbCchUif9m3TLi-6">
                    <mxGeometry width="50" height="50" relative="1" as="geometry">
                        <mxPoint x="224" y="301.2499999999999" as="sourcePoint"/>
                        <mxPoint x="384" y="450" as="targetPoint"/>
                    </mxGeometry>
                </mxCell>
                <mxCell id="P1RbP0NbCchUif9m3TLi-16" value="" style="endArrow=none;html=1;exitX=1;exitY=0.5;exitDx=0;exitDy=0;" edge="1" parent="P1RbP0NbCchUif9m3TLi-1" source="P1RbP0NbCchUif9m3TLi-3">
                    <mxGeometry width="50" height="50" relative="1" as="geometry">
                        <mxPoint x="244" y="270" as="sourcePoint"/>
                        <mxPoint x="384" y="80" as="targetPoint"/>
                    </mxGeometry>
                </mxCell>
                <mxCell id="P1RbP0NbCchUif9m3TLi-17" value="" style="group" vertex="1" connectable="0" parent="P1RbP0NbCchUif9m3TLi-1">
                    <mxGeometry x="134" y="130" width="175" height="100.63" as="geometry"/>
                </mxCell>
                <mxCell id="P1RbP0NbCchUif9m3TLi-18" value="" style="group" vertex="1" connectable="0" parent="P1RbP0NbCchUif9m3TLi-17">
                    <mxGeometry x="-66" y="15.629999999999995" width="175" height="85" as="geometry"/>
                </mxCell>
                <mxCell id="P1RbP0NbCchUif9m3TLi-19" value="" style="ellipse;whiteSpace=wrap;html=1;" vertex="1" parent="P1RbP0NbCchUif9m3TLi-18">
                    <mxGeometry width="175" height="85" as="geometry"/>
                </mxCell>
                <mxCell id="P1RbP0NbCchUif9m3TLi-20" value="&lt;div style=&quot;color: rgb(204, 204, 204); background-color: rgb(31, 31, 31); font-family: Consolas, &amp;quot;Courier New&amp;quot;, monospace; font-size: 14px; line-height: 19px;&quot;&gt;申請人填寫必填資料&lt;/div&gt;" style="text;strokeColor=none;align=center;fillColor=none;html=1;verticalAlign=middle;whiteSpace=wrap;rounded=0;" vertex="1" parent="P1RbP0NbCchUif9m3TLi-18">
                    <mxGeometry x="48.75" y="10.5" width="80" height="64" as="geometry"/>
                </mxCell>
                <mxCell id="P1RbP0NbCchUif9m3TLi-21" value="" style="group" vertex="1" connectable="0" parent="P1RbP0NbCchUif9m3TLi-1">
                    <mxGeometry x="70" y="250" width="175" height="85" as="geometry"/>
                </mxCell>
                <mxCell id="P1RbP0NbCchUif9m3TLi-22" value="" style="ellipse;whiteSpace=wrap;html=1;" vertex="1" parent="P1RbP0NbCchUif9m3TLi-21">
                    <mxGeometry width="175" height="85" as="geometry"/>
                </mxCell>
                <mxCell id="P1RbP0NbCchUif9m3TLi-23" value="&lt;div style=&quot;color: rgb(204, 204, 204); background-color: rgb(31, 31, 31); font-family: Consolas, &amp;quot;Courier New&amp;quot;, monospace; font-size: 14px; line-height: 19px;&quot;&gt;填寫資料→確認→修改或送出&lt;/div&gt;" style="text;strokeColor=none;align=center;fillColor=none;html=1;verticalAlign=middle;whiteSpace=wrap;rounded=0;" vertex="1" parent="P1RbP0NbCchUif9m3TLi-21">
                    <mxGeometry x="36.25" y="13.75" width="102.5" height="57.5" as="geometry"/>
                </mxCell>
                <mxCell id="P1RbP0NbCchUif9m3TLi-24" value="" style="group;rotation=90;" vertex="1" connectable="0" parent="P1RbP0NbCchUif9m3TLi-1">
                    <mxGeometry x="70" y="340" width="175" height="108.12" as="geometry"/>
                </mxCell>
                <mxCell id="P1RbP0NbCchUif9m3TLi-25" value="" style="ellipse;whiteSpace=wrap;html=1;" vertex="1" parent="P1RbP0NbCchUif9m3TLi-24">
                    <mxGeometry y="11.560000000000002" width="175" height="85" as="geometry"/>
                </mxCell>
                <mxCell id="P1RbP0NbCchUif9m3TLi-26" value="&lt;div style=&quot;color: rgb(204, 204, 204); background-color: rgb(31, 31, 31); font-family: Consolas, &amp;quot;Courier New&amp;quot;, monospace; line-height: 19px;&quot;&gt;&lt;div style=&quot;line-height: 19px;&quot;&gt;&lt;font style=&quot;font-size: 15px;&quot;&gt;查看申請者資訊並審核&lt;/font&gt;&lt;/div&gt;&lt;/div&gt;" style="text;strokeColor=none;align=center;fillColor=none;html=1;verticalAlign=middle;whiteSpace=wrap;rounded=0;" vertex="1" parent="P1RbP0NbCchUif9m3TLi-24">
                    <mxGeometry x="46" width="84" height="108.12" as="geometry"/>
                </mxCell>
                <mxCell id="P1RbP0NbCchUif9m3TLi-27" value="" style="group" vertex="1" connectable="0" parent="P1RbP0NbCchUif9m3TLi-1">
                    <mxGeometry x="70" y="40" width="175" height="85" as="geometry"/>
                </mxCell>
                <mxCell id="P1RbP0NbCchUif9m3TLi-28" value="" style="ellipse;whiteSpace=wrap;html=1;" vertex="1" parent="P1RbP0NbCchUif9m3TLi-27">
                    <mxGeometry width="175" height="85" as="geometry"/>
                </mxCell>
                <mxCell id="P1RbP0NbCchUif9m3TLi-29" value="&lt;div style=&quot;color: rgb(204, 204, 204); background-color: rgb(31, 31, 31); font-family: Consolas, &amp;quot;Courier New&amp;quot;, monospace; font-size: 14px; line-height: 19px;&quot;&gt;設計網站供申請普發 8000元&lt;/div&gt;" style="text;strokeColor=none;align=center;fillColor=none;html=1;verticalAlign=middle;whiteSpace=wrap;rounded=0;" vertex="1" parent="P1RbP0NbCchUif9m3TLi-27">
                    <mxGeometry x="35" y="15.620000000000001" width="106" height="53.75" as="geometry"/>
                </mxCell>
                <mxCell id="P1RbP0NbCchUif9m3TLi-30" value="申請人" style="shape=umlActor;verticalLabelPosition=bottom;verticalAlign=top;html=1;outlineConnect=0;" vertex="1" parent="1">
                    <mxGeometry x="70" y="380" width="80" height="140" as="geometry"/>
                </mxCell>
                <mxCell id="P1RbP0NbCchUif9m3TLi-31" value="設計師" style="shape=umlActor;verticalLabelPosition=bottom;verticalAlign=top;html=1;outlineConnect=0;" vertex="1" parent="1">
                    <mxGeometry x="70" y="760" width="80" height="140" as="geometry"/>
                </mxCell>
                <mxCell id="P1RbP0NbCchUif9m3TLi-32" value="&lt;div style=&quot;color: rgb(204, 204, 204); background-color: rgb(31, 31, 31); font-family: Consolas, &amp;quot;Courier New&amp;quot;, monospace; font-size: 14px; line-height: 19px;&quot;&gt;政府政策決定者&lt;/div&gt;" style="shape=umlActor;verticalLabelPosition=bottom;verticalAlign=top;html=1;outlineConnect=0;" vertex="1" parent="1">
                    <mxGeometry x="650" y="380" width="80" height="140" as="geometry"/>
                </mxCell>
                <mxCell id="P1RbP0NbCchUif9m3TLi-33" value="&lt;div style=&quot;color: rgb(204, 204, 204); background-color: rgb(31, 31, 31); font-family: Consolas, &amp;quot;Courier New&amp;quot;, monospace; font-size: 14px; line-height: 19px;&quot;&gt;戶政系統&lt;/div&gt;" style="shape=umlActor;verticalLabelPosition=bottom;verticalAlign=top;html=1;outlineConnect=0;" vertex="1" parent="1">
                    <mxGeometry x="650" y="190" width="80" height="140" as="geometry"/>
                </mxCell>
                <mxCell id="P1RbP0NbCchUif9m3TLi-34" value="&lt;div style=&quot;color: rgb(204, 204, 204); background-color: rgb(31, 31, 31); font-family: Consolas, &amp;quot;Courier New&amp;quot;, monospace; font-size: 14px; line-height: 19px;&quot;&gt;金融機構&lt;/div&gt;" style="shape=umlActor;verticalLabelPosition=bottom;verticalAlign=top;html=1;outlineConnect=0;" vertex="1" parent="1">
                    <mxGeometry x="650" y="550" width="80" height="140" as="geometry"/>
                </mxCell>
                <mxCell id="P1RbP0NbCchUif9m3TLi-35" value="&lt;div style=&quot;color: rgb(204, 204, 204); background-color: rgb(31, 31, 31); font-family: Consolas, &amp;quot;Courier New&amp;quot;, monospace; font-size: 14px; line-height: 19px;&quot;&gt;健保局&lt;/div&gt;" style="shape=umlActor;verticalLabelPosition=bottom;verticalAlign=top;html=1;outlineConnect=0;" vertex="1" parent="1">
                    <mxGeometry x="650" y="720" width="80" height="140" as="geometry"/>
                </mxCell>
                <mxCell id="P1RbP0NbCchUif9m3TLi-36" value="&lt;div style=&quot;color: rgb(204, 204, 204); background-color: rgb(31, 31, 31); font-family: Consolas, &amp;quot;Courier New&amp;quot;, monospace; font-size: 14px; line-height: 19px;&quot;&gt;政府機關人員&lt;/div&gt;" style="shape=umlActor;verticalLabelPosition=bottom;verticalAlign=top;html=1;outlineConnect=0;" vertex="1" parent="1">
                    <mxGeometry x="650" y="890" width="80" height="140" as="geometry"/>
                </mxCell>
                <mxCell id="P1RbP0NbCchUif9m3TLi-37" value="" style="endArrow=none;html=1;entryX=0;entryY=0.5;entryDx=0;entryDy=0;" edge="1" parent="1" target="P1RbP0NbCchUif9m3TLi-19">
                    <mxGeometry width="50" height="50" relative="1" as="geometry">
                        <mxPoint x="160" y="470" as="sourcePoint"/>
                        <mxPoint x="210" y="210" as="targetPoint"/>
                    </mxGeometry>
                </mxCell>
                <mxCell id="P1RbP0NbCchUif9m3TLi-39" value="" style="endArrow=none;html=1;entryX=0;entryY=0.5;entryDx=0;entryDy=0;" edge="1" parent="1" target="P1RbP0NbCchUif9m3TLi-28">
                    <mxGeometry width="50" height="50" relative="1" as="geometry">
                        <mxPoint x="160" y="840" as="sourcePoint"/>
                        <mxPoint x="330" y="280" as="targetPoint"/>
                    </mxGeometry>
                </mxCell>
                <mxCell id="P1RbP0NbCchUif9m3TLi-40" value="" style="endArrow=none;html=1;entryX=0;entryY=0.5;entryDx=0;entryDy=0;" edge="1" parent="1" target="P1RbP0NbCchUif9m3TLi-22">
                    <mxGeometry width="50" height="50" relative="1" as="geometry">
                        <mxPoint x="160" y="483" as="sourcePoint"/>
                        <mxPoint x="334.0000000000018" y="278.13" as="targetPoint"/>
                    </mxGeometry>
                </mxCell>
                <mxCell id="P1RbP0NbCchUif9m3TLi-41" value="" style="endArrow=none;html=1;exitX=1;exitY=0.5;exitDx=0;exitDy=0;" edge="1" parent="1" source="P1RbP0NbCchUif9m3TLi-25">
                    <mxGeometry width="50" height="50" relative="1" as="geometry">
                        <mxPoint x="160" y="700" as="sourcePoint"/>
                        <mxPoint x="640" y="450" as="targetPoint"/>
                        <Array as="points">
                            <mxPoint x="640" y="450"/>
                        </Array>
                    </mxGeometry>
                </mxCell>
                <mxCell id="P1RbP0NbCchUif9m3TLi-15" value="" style="endArrow=none;html=1;exitX=1;exitY=0.5;exitDx=0;exitDy=0;" edge="1" parent="1" source="P1RbP0NbCchUif9m3TLi-9">
                    <mxGeometry width="50" height="50" relative="1" as="geometry">
                        <mxPoint x="480" y="709.9999999999999" as="sourcePoint"/>
                        <mxPoint x="650" y="810" as="targetPoint"/>
                    </mxGeometry>
                </mxCell>
                <mxCell id="nw7_f3So4ViWz6gTwq3u-2" value="" style="endArrow=none;html=1;exitX=1;exitY=0.5;exitDx=0;exitDy=0;" edge="1" parent="1" source="P1RbP0NbCchUif9m3TLi-12">
                    <mxGeometry width="50" height="50" relative="1" as="geometry">
                        <mxPoint x="501" y="962.5" as="sourcePoint"/>
                        <mxPoint x="640" y="970" as="targetPoint"/>
                    </mxGeometry>
                </mxCell>
            </root>
        </mxGraphModel>
    </diagram>
    <diagram id="miYq69Oa74mVpDNsrwpx" name="2c">
        <mxGraphModel dx="979" dy="662" grid="1" gridSize="10" guides="1" tooltips="1" connect="1" arrows="1" fold="1" page="1" pageScale="1" pageWidth="827" pageHeight="1169" math="0" shadow="0">
            <root>
                <mxCell id="0"/>
                <mxCell id="1" parent="0"/>
                <mxCell id="h5VuyP47g7cALkmX63pq-1" value="" style="rounded=0;whiteSpace=wrap;html=1;" vertex="1" parent="1">
                    <mxGeometry x="84" y="130" width="660" height="570" as="geometry"/>
                </mxCell>
                <mxCell id="h5VuyP47g7cALkmX63pq-2" value="&lt;span style=&quot;font-size: 22px;&quot;&gt;申請人&lt;/span&gt;" style="text;strokeColor=none;align=center;fillColor=none;html=1;verticalAlign=middle;whiteSpace=wrap;rounded=0;" vertex="1" parent="1">
                    <mxGeometry x="154" y="156" width="70" height="30" as="geometry"/>
                </mxCell>
                <mxCell id="h5VuyP47g7cALkmX63pq-3" value="&lt;div style=&quot;color: rgb(204, 204, 204); background-color: rgb(31, 31, 31); font-family: Consolas, &amp;quot;Courier New&amp;quot;, monospace; line-height: 19px;&quot;&gt;&lt;font style=&quot;font-size: 22px;&quot;&gt;政府機關人員&lt;/font&gt;&lt;/div&gt;" style="text;strokeColor=none;align=center;fillColor=none;html=1;verticalAlign=middle;whiteSpace=wrap;rounded=0;" vertex="1" parent="1">
                    <mxGeometry x="345" y="156" width="145" height="30" as="geometry"/>
                </mxCell>
                <mxCell id="h5VuyP47g7cALkmX63pq-4" value="&lt;font style=&quot;font-size: 22px;&quot;&gt;後台人員&lt;/font&gt;" style="text;strokeColor=none;align=center;fillColor=none;html=1;verticalAlign=middle;whiteSpace=wrap;rounded=0;" vertex="1" parent="1">
                    <mxGeometry x="584" y="156" width="90" height="30" as="geometry"/>
                </mxCell>
                <mxCell id="h5VuyP47g7cALkmX63pq-5" value="" style="group" vertex="1" connectable="0" parent="1">
                    <mxGeometry x="134" y="356" width="110" height="50" as="geometry"/>
                </mxCell>
                <mxCell id="h5VuyP47g7cALkmX63pq-6" value="" style="whiteSpace=wrap;html=1;fontSize=22;" vertex="1" parent="h5VuyP47g7cALkmX63pq-5">
                    <mxGeometry width="110" height="50" as="geometry"/>
                </mxCell>
                <mxCell id="h5VuyP47g7cALkmX63pq-7" value="&lt;div style=&quot;color: rgb(204, 204, 204); background-color: rgb(31, 31, 31); font-family: Consolas, &amp;quot;Courier New&amp;quot;, monospace; line-height: 19px;&quot;&gt;&lt;font style=&quot;font-size: 15px;&quot;&gt;填寫資料&lt;/font&gt;&lt;/div&gt;" style="text;strokeColor=none;align=center;fillColor=none;html=1;verticalAlign=middle;whiteSpace=wrap;rounded=0;fontSize=22;" vertex="1" parent="h5VuyP47g7cALkmX63pq-5">
                    <mxGeometry x="5" y="9" width="100" height="30" as="geometry"/>
                </mxCell>
                <mxCell id="h5VuyP47g7cALkmX63pq-8" value="" style="line;strokeWidth=1;direction=south;html=1;fontSize=15;" vertex="1" parent="1">
                    <mxGeometry x="290" y="130" width="10" height="570" as="geometry"/>
                </mxCell>
                <mxCell id="h5VuyP47g7cALkmX63pq-9" value="" style="line;strokeWidth=1;direction=south;html=1;fontSize=15;" vertex="1" parent="1">
                    <mxGeometry x="524" y="130" width="10" height="570" as="geometry"/>
                </mxCell>
                <mxCell id="h5VuyP47g7cALkmX63pq-10" value="" style="line;strokeWidth=1;html=1;perimeter=backbonePerimeter;points=[];outlineConnect=0;fontSize=15;" vertex="1" parent="1">
                    <mxGeometry x="84" y="200" width="660" height="10" as="geometry"/>
                </mxCell>
                <mxCell id="h5VuyP47g7cALkmX63pq-11" value="" style="edgeStyle=none;orthogonalLoop=1;jettySize=auto;html=1;fontSize=15;strokeWidth=1;" edge="1" parent="1">
                    <mxGeometry width="100" relative="1" as="geometry">
                        <mxPoint x="244" y="379.5" as="sourcePoint"/>
                        <mxPoint x="354" y="380" as="targetPoint"/>
                        <Array as="points"/>
                    </mxGeometry>
                </mxCell>
                <mxCell id="h5VuyP47g7cALkmX63pq-12" value="" style="edgeStyle=none;orthogonalLoop=1;jettySize=auto;html=1;strokeWidth=1;fontSize=15;" edge="1" parent="1">
                    <mxGeometry width="100" relative="1" as="geometry">
                        <mxPoint x="413" y="405" as="sourcePoint"/>
                        <mxPoint x="414" y="465" as="targetPoint"/>
                        <Array as="points"/>
                    </mxGeometry>
                </mxCell>
                <mxCell id="h5VuyP47g7cALkmX63pq-13" value="" style="ellipse;whiteSpace=wrap;html=1;strokeWidth=1;fontSize=15;" vertex="1" parent="1">
                    <mxGeometry x="374" y="465" width="80" height="80" as="geometry"/>
                </mxCell>
                <mxCell id="h5VuyP47g7cALkmX63pq-14" value="" style="edgeStyle=none;orthogonalLoop=1;jettySize=auto;html=1;strokeWidth=1;fontSize=15;" edge="1" parent="1">
                    <mxGeometry width="100" relative="1" as="geometry">
                        <mxPoint x="413.5" y="545" as="sourcePoint"/>
                        <mxPoint x="414.5" y="605" as="targetPoint"/>
                        <Array as="points"/>
                    </mxGeometry>
                </mxCell>
                <mxCell id="h5VuyP47g7cALkmX63pq-15" value="" style="group" vertex="1" connectable="0" parent="1">
                    <mxGeometry x="364" y="605" width="110" height="50" as="geometry"/>
                </mxCell>
                <mxCell id="h5VuyP47g7cALkmX63pq-16" value="" style="whiteSpace=wrap;html=1;fontSize=22;" vertex="1" parent="h5VuyP47g7cALkmX63pq-15">
                    <mxGeometry width="110" height="50" as="geometry"/>
                </mxCell>
                <mxCell id="h5VuyP47g7cALkmX63pq-17" value="&lt;div style=&quot;color: rgb(204, 204, 204); background-color: rgb(31, 31, 31); font-family: Consolas, &amp;quot;Courier New&amp;quot;, monospace; line-height: 19px;&quot;&gt;&lt;font style=&quot;font-size: 15px;&quot;&gt;重新填寫&lt;/font&gt;&lt;/div&gt;" style="text;strokeColor=none;align=center;fillColor=none;html=1;verticalAlign=middle;whiteSpace=wrap;rounded=0;fontSize=22;" vertex="1" parent="h5VuyP47g7cALkmX63pq-15">
                    <mxGeometry x="5" y="10" width="100" height="30" as="geometry"/>
                </mxCell>
                <mxCell id="h5VuyP47g7cALkmX63pq-18" value="" style="edgeStyle=none;orthogonalLoop=1;jettySize=auto;html=1;fontSize=15;strokeWidth=1;entryX=0;entryY=0.5;entryDx=0;entryDy=0;" edge="1" parent="1" target="h5VuyP47g7cALkmX63pq-19">
                    <mxGeometry width="100" relative="1" as="geometry">
                        <mxPoint x="454" y="504.5" as="sourcePoint"/>
                        <mxPoint x="574" y="505" as="targetPoint"/>
                        <Array as="points"/>
                    </mxGeometry>
                </mxCell>
                <mxCell id="h5VuyP47g7cALkmX63pq-19" value="" style="whiteSpace=wrap;html=1;fontSize=22;" vertex="1" parent="1">
                    <mxGeometry x="584" y="480" width="110" height="50" as="geometry"/>
                </mxCell>
                <mxCell id="h5VuyP47g7cALkmX63pq-20" value="&lt;div style=&quot;color: rgb(204, 204, 204); background-color: rgb(31, 31, 31); font-family: Consolas, &amp;quot;Courier New&amp;quot;, monospace; line-height: 19px;&quot;&gt;&lt;div style=&quot;font-size: 14px; line-height: 19px;&quot;&gt;將資料寫入JSON格式&lt;/div&gt;&lt;/div&gt;" style="text;strokeColor=none;align=center;fillColor=none;html=1;verticalAlign=middle;whiteSpace=wrap;rounded=0;fontSize=22;" vertex="1" parent="1">
                    <mxGeometry x="591.5" y="491" width="95" height="30" as="geometry"/>
                </mxCell>
                <mxCell id="h5VuyP47g7cALkmX63pq-21" value="正確" style="text;strokeColor=none;align=center;fillColor=none;html=1;verticalAlign=middle;whiteSpace=wrap;rounded=0;strokeWidth=1;fontSize=15;" vertex="1" parent="1">
                    <mxGeometry x="415" y="435" width="45" height="30" as="geometry"/>
                </mxCell>
                <mxCell id="h5VuyP47g7cALkmX63pq-22" value="錯誤" style="text;strokeColor=none;align=center;fillColor=none;html=1;verticalAlign=middle;whiteSpace=wrap;rounded=0;strokeWidth=1;fontSize=15;" vertex="1" parent="1">
                    <mxGeometry x="370" y="546" width="45" height="30" as="geometry"/>
                </mxCell>
                <mxCell id="h5VuyP47g7cALkmX63pq-23" value="" style="edgeStyle=none;orthogonalLoop=1;jettySize=auto;html=1;strokeWidth=1;fontSize=15;" edge="1" parent="1">
                    <mxGeometry width="100" relative="1" as="geometry">
                        <mxPoint x="638.5" y="530" as="sourcePoint"/>
                        <mxPoint x="639.5" y="590" as="targetPoint"/>
                        <Array as="points"/>
                    </mxGeometry>
                </mxCell>
                <mxCell id="h5VuyP47g7cALkmX63pq-24" value="" style="edgeStyle=none;orthogonalLoop=1;jettySize=auto;html=1;fontSize=15;strokeWidth=1;entryX=1;entryY=0.5;entryDx=0;entryDy=0;" edge="1" parent="1" target="h5VuyP47g7cALkmX63pq-28">
                    <mxGeometry width="100" relative="1" as="geometry">
                        <mxPoint x="362" y="632" as="sourcePoint"/>
                        <mxPoint x="236" y="630" as="targetPoint"/>
                        <Array as="points"/>
                    </mxGeometry>
                </mxCell>
                <mxCell id="h5VuyP47g7cALkmX63pq-25" value="" style="group" vertex="1" connectable="0" parent="1">
                    <mxGeometry x="359" y="356" width="110" height="50" as="geometry"/>
                </mxCell>
                <mxCell id="h5VuyP47g7cALkmX63pq-26" value="" style="whiteSpace=wrap;html=1;fontSize=22;" vertex="1" parent="h5VuyP47g7cALkmX63pq-25">
                    <mxGeometry width="110" height="50" as="geometry"/>
                </mxCell>
                <mxCell id="h5VuyP47g7cALkmX63pq-27" value="&lt;div style=&quot;color: rgb(204, 204, 204); background-color: rgb(31, 31, 31); font-family: Consolas, &amp;quot;Courier New&amp;quot;, monospace; line-height: 19px;&quot;&gt;&lt;div style=&quot;font-size: 14px; line-height: 19px;&quot;&gt;確認資料的正確性和合法性&lt;/div&gt;&lt;/div&gt;" style="text;strokeColor=none;align=center;fillColor=none;html=1;verticalAlign=middle;whiteSpace=wrap;rounded=0;fontSize=22;" vertex="1" parent="h5VuyP47g7cALkmX63pq-25">
                    <mxGeometry x="7" y="9" width="95" height="30" as="geometry"/>
                </mxCell>
                <mxCell id="h5VuyP47g7cALkmX63pq-28" value="" style="ellipse;shape=doubleEllipse;whiteSpace=wrap;html=1;aspect=fixed;strokeWidth=1;fontSize=15;" vertex="1" parent="1">
                    <mxGeometry x="144" y="590" width="80" height="80" as="geometry"/>
                </mxCell>
                <mxCell id="h5VuyP47g7cALkmX63pq-29" value="" style="ellipse;shape=doubleEllipse;whiteSpace=wrap;html=1;aspect=fixed;strokeWidth=1;fontSize=15;" vertex="1" parent="1">
                    <mxGeometry x="599" y="590" width="80" height="80" as="geometry"/>
                </mxCell>
                <mxCell id="2bJVGvZEkBm49AMDPmw1-1" value="" style="ellipse;whiteSpace=wrap;html=1;strokeWidth=1;fontSize=15;" vertex="1" parent="1">
                    <mxGeometry x="149" y="215" width="80" height="80" as="geometry"/>
                </mxCell>
                <mxCell id="2bJVGvZEkBm49AMDPmw1-2" value="" style="edgeStyle=none;orthogonalLoop=1;jettySize=auto;html=1;strokeWidth=1;fontSize=15;" edge="1" parent="1">
                    <mxGeometry width="100" relative="1" as="geometry">
                        <mxPoint x="188.41" y="295" as="sourcePoint"/>
                        <mxPoint x="189.41" y="355" as="targetPoint"/>
                        <Array as="points"/>
                    </mxGeometry>
                </mxCell>
            </root>
        </mxGraphModel>
    </diagram>
    <diagram id="jKp8lnFoO_ODNvvGuu6S" name="2d">
        <mxGraphModel dx="832" dy="563" grid="1" gridSize="10" guides="1" tooltips="1" connect="1" arrows="1" fold="1" page="1" pageScale="1" pageWidth="827" pageHeight="1169" math="0" shadow="0">
            <root>
                <mxCell id="0"/>
                <mxCell id="1" parent="0"/>
                <mxCell id="1ssswWglG0BHyRgweNzh-1" value="網站" style="swimlane;strokeWidth=1;fontSize=15;" vertex="1" parent="1">
                    <mxGeometry x="340" y="60" width="140" height="240" as="geometry"/>
                </mxCell>
                <mxCell id="1ssswWglG0BHyRgweNzh-2" value="身分證號" style="text;strokeColor=none;align=center;fillColor=none;html=1;verticalAlign=middle;whiteSpace=wrap;rounded=0;strokeWidth=1;fontSize=15;" vertex="1" parent="1ssswWglG0BHyRgweNzh-1">
                    <mxGeometry x="32.5" y="32" width="75" height="30" as="geometry"/>
                </mxCell>
                <mxCell id="1ssswWglG0BHyRgweNzh-3" value="" style="group;strokeWidth=2;" vertex="1" connectable="0" parent="1ssswWglG0BHyRgweNzh-1">
                    <mxGeometry x="10" y="205" width="20" height="20" as="geometry"/>
                </mxCell>
                <mxCell id="1ssswWglG0BHyRgweNzh-4" value="" style="verticalLabelPosition=bottom;shadow=0;dashed=0;align=center;html=1;verticalAlign=top;strokeWidth=1;shape=mxgraph.mockup.markup.line;strokeColor=#999999;fontSize=15;fillColor=default;" vertex="1" parent="1ssswWglG0BHyRgweNzh-3">
                    <mxGeometry y="8" width="20" height="4" as="geometry"/>
                </mxCell>
                <mxCell id="1ssswWglG0BHyRgweNzh-5" value="" style="verticalLabelPosition=bottom;shadow=0;dashed=0;align=center;html=1;verticalAlign=top;strokeWidth=1;shape=mxgraph.mockup.markup.line;strokeColor=#999999;fontSize=15;fillColor=default;" vertex="1" parent="1ssswWglG0BHyRgweNzh-3">
                    <mxGeometry y="8" width="20" height="4" as="geometry"/>
                </mxCell>
                <mxCell id="1ssswWglG0BHyRgweNzh-6" value="" style="verticalLabelPosition=bottom;shadow=0;dashed=0;align=center;html=1;verticalAlign=top;strokeWidth=1;shape=mxgraph.mockup.markup.line;strokeColor=#999999;direction=north;fontSize=15;fillColor=default;" vertex="1" parent="1ssswWglG0BHyRgweNzh-3">
                    <mxGeometry x="8" width="4" height="20" as="geometry"/>
                </mxCell>
                <mxCell id="1ssswWglG0BHyRgweNzh-7" value="" style="verticalLabelPosition=bottom;shadow=0;dashed=0;align=center;html=1;verticalAlign=top;strokeWidth=1;shape=mxgraph.mockup.markup.line;strokeColor=#999999;fontSize=15;fillColor=default;" vertex="1" parent="1ssswWglG0BHyRgweNzh-1">
                    <mxGeometry x="10" y="45" width="20" height="4" as="geometry"/>
                </mxCell>
                <mxCell id="1ssswWglG0BHyRgweNzh-8" value="健保卡號" style="text;strokeColor=none;align=center;fillColor=none;html=1;verticalAlign=middle;whiteSpace=wrap;rounded=0;strokeWidth=1;fontSize=15;" vertex="1" parent="1ssswWglG0BHyRgweNzh-1">
                    <mxGeometry x="32.5" y="152" width="75" height="30" as="geometry"/>
                </mxCell>
                <mxCell id="1ssswWglG0BHyRgweNzh-9" value="金融帳號" style="text;strokeColor=none;align=center;fillColor=none;html=1;verticalAlign=middle;whiteSpace=wrap;rounded=0;strokeWidth=1;fontSize=15;" vertex="1" parent="1ssswWglG0BHyRgweNzh-1">
                    <mxGeometry x="32.5" y="122" width="75" height="30" as="geometry"/>
                </mxCell>
                <mxCell id="1ssswWglG0BHyRgweNzh-10" value="金融代號" style="text;strokeColor=none;align=center;fillColor=none;html=1;verticalAlign=middle;whiteSpace=wrap;rounded=0;strokeWidth=1;fontSize=15;" vertex="1" parent="1ssswWglG0BHyRgweNzh-1">
                    <mxGeometry x="32.5" y="92" width="75" height="30" as="geometry"/>
                </mxCell>
                <mxCell id="1ssswWglG0BHyRgweNzh-11" value="居留證號" style="text;strokeColor=none;align=center;fillColor=none;html=1;verticalAlign=middle;whiteSpace=wrap;rounded=0;strokeWidth=1;fontSize=15;" vertex="1" parent="1ssswWglG0BHyRgweNzh-1">
                    <mxGeometry x="32.5" y="62" width="75" height="30" as="geometry"/>
                </mxCell>
                <mxCell id="1ssswWglG0BHyRgweNzh-12" value="提交資料" style="text;strokeColor=none;align=center;fillColor=none;html=1;verticalAlign=middle;whiteSpace=wrap;rounded=0;strokeWidth=1;fontSize=15;" vertex="1" parent="1ssswWglG0BHyRgweNzh-1">
                    <mxGeometry x="32.5" y="202" width="75" height="30" as="geometry"/>
                </mxCell>
                <mxCell id="1ssswWglG0BHyRgweNzh-13" value="" style="verticalLabelPosition=bottom;shadow=0;dashed=0;align=center;html=1;verticalAlign=top;strokeWidth=1;shape=mxgraph.mockup.markup.line;strokeColor=#999999;fontSize=15;fillColor=default;" vertex="1" parent="1ssswWglG0BHyRgweNzh-1">
                    <mxGeometry x="10" y="69.5" width="20" height="15" as="geometry"/>
                </mxCell>
                <mxCell id="1ssswWglG0BHyRgweNzh-14" value="" style="verticalLabelPosition=bottom;shadow=0;dashed=0;align=center;html=1;verticalAlign=top;strokeWidth=1;shape=mxgraph.mockup.markup.line;strokeColor=#999999;fontSize=15;fillColor=default;" vertex="1" parent="1ssswWglG0BHyRgweNzh-1">
                    <mxGeometry x="10" y="105" width="20" height="4" as="geometry"/>
                </mxCell>
                <mxCell id="1ssswWglG0BHyRgweNzh-15" value="" style="verticalLabelPosition=bottom;shadow=0;dashed=0;align=center;html=1;verticalAlign=top;strokeWidth=1;shape=mxgraph.mockup.markup.line;strokeColor=#999999;fontSize=15;fillColor=default;" vertex="1" parent="1ssswWglG0BHyRgweNzh-1">
                    <mxGeometry x="10" y="135" width="20" height="4" as="geometry"/>
                </mxCell>
                <mxCell id="1ssswWglG0BHyRgweNzh-16" value="" style="verticalLabelPosition=bottom;shadow=0;dashed=0;align=center;html=1;verticalAlign=top;strokeWidth=1;shape=mxgraph.mockup.markup.line;strokeColor=#999999;fontSize=15;fillColor=default;" vertex="1" parent="1ssswWglG0BHyRgweNzh-1">
                    <mxGeometry x="10" y="165" width="20" height="4" as="geometry"/>
                </mxCell>
                <mxCell id="1ssswWglG0BHyRgweNzh-17" value="" style="verticalLabelPosition=bottom;shadow=0;dashed=0;align=center;html=1;verticalAlign=top;strokeWidth=1;shape=mxgraph.mockup.markup.line;strokeColor=#999999;fontSize=15;fillColor=default;" vertex="1" parent="1">
                    <mxGeometry x="210" y="170" width="130" height="20" as="geometry"/>
                </mxCell>
                <mxCell id="1ssswWglG0BHyRgweNzh-18" value="" style="verticalLabelPosition=bottom;shadow=0;dashed=0;align=center;html=1;verticalAlign=top;strokeWidth=1;shape=mxgraph.mockup.markup.line;strokeColor=#999999;direction=north;fontSize=15;fillColor=default;" vertex="1" parent="1">
                    <mxGeometry x="400" y="300" width="20" height="110" as="geometry"/>
                </mxCell>
                <mxCell id="1ssswWglG0BHyRgweNzh-19" value="" style="group" vertex="1" connectable="0" parent="1">
                    <mxGeometry x="267" y="145" width="82" height="60" as="geometry"/>
                </mxCell>
                <mxCell id="1ssswWglG0BHyRgweNzh-20" value="1..*" style="text;strokeColor=none;align=center;fillColor=none;html=1;verticalAlign=middle;whiteSpace=wrap;rounded=0;strokeWidth=2;fontSize=16;" vertex="1" parent="1ssswWglG0BHyRgweNzh-19">
                    <mxGeometry x="36.31" y="37.5" width="35.14" height="22.5" as="geometry"/>
                </mxCell>
                <mxCell id="1ssswWglG0BHyRgweNzh-21" value="政府機關人員" style="swimlane;strokeWidth=1;fontSize=15;startSize=23;" vertex="1" parent="1">
                    <mxGeometry x="340" y="410" width="140" height="100" as="geometry"/>
                </mxCell>
                <mxCell id="1ssswWglG0BHyRgweNzh-22" value="審核資料" style="text;strokeColor=none;align=center;fillColor=none;html=1;verticalAlign=middle;whiteSpace=wrap;rounded=0;strokeWidth=1;fontSize=15;" vertex="1" parent="1ssswWglG0BHyRgweNzh-21">
                    <mxGeometry x="35" y="35" width="70" height="30" as="geometry"/>
                </mxCell>
                <mxCell id="1ssswWglG0BHyRgweNzh-23" value="" style="group;strokeWidth=2;" vertex="1" connectable="0" parent="1ssswWglG0BHyRgweNzh-21">
                    <mxGeometry x="10" y="35" width="20" height="20" as="geometry"/>
                </mxCell>
                <mxCell id="1ssswWglG0BHyRgweNzh-24" value="" style="verticalLabelPosition=bottom;shadow=0;dashed=0;align=center;html=1;verticalAlign=top;strokeWidth=1;shape=mxgraph.mockup.markup.line;strokeColor=#999999;fontSize=15;fillColor=default;" vertex="1" parent="1ssswWglG0BHyRgweNzh-23">
                    <mxGeometry y="8" width="20" height="4" as="geometry"/>
                </mxCell>
                <mxCell id="1ssswWglG0BHyRgweNzh-25" value="" style="verticalLabelPosition=bottom;shadow=0;dashed=0;align=center;html=1;verticalAlign=top;strokeWidth=1;shape=mxgraph.mockup.markup.line;strokeColor=#999999;fontSize=15;fillColor=default;" vertex="1" parent="1ssswWglG0BHyRgweNzh-23">
                    <mxGeometry y="8" width="20" height="4" as="geometry"/>
                </mxCell>
                <mxCell id="1ssswWglG0BHyRgweNzh-26" value="" style="verticalLabelPosition=bottom;shadow=0;dashed=0;align=center;html=1;verticalAlign=top;strokeWidth=1;shape=mxgraph.mockup.markup.line;strokeColor=#999999;direction=north;fontSize=15;fillColor=default;" vertex="1" parent="1ssswWglG0BHyRgweNzh-23">
                    <mxGeometry x="8" width="4" height="20" as="geometry"/>
                </mxCell>
                <mxCell id="1ssswWglG0BHyRgweNzh-27" value="" style="group;strokeWidth=2;" vertex="1" connectable="0" parent="1ssswWglG0BHyRgweNzh-21">
                    <mxGeometry x="10" y="65" width="20" height="20" as="geometry"/>
                </mxCell>
                <mxCell id="1ssswWglG0BHyRgweNzh-28" value="" style="verticalLabelPosition=bottom;shadow=0;dashed=0;align=center;html=1;verticalAlign=top;strokeWidth=1;shape=mxgraph.mockup.markup.line;strokeColor=#999999;fontSize=15;fillColor=default;" vertex="1" parent="1ssswWglG0BHyRgweNzh-27">
                    <mxGeometry y="8" width="20" height="4" as="geometry"/>
                </mxCell>
                <mxCell id="1ssswWglG0BHyRgweNzh-29" value="" style="verticalLabelPosition=bottom;shadow=0;dashed=0;align=center;html=1;verticalAlign=top;strokeWidth=1;shape=mxgraph.mockup.markup.line;strokeColor=#999999;fontSize=15;fillColor=default;" vertex="1" parent="1ssswWglG0BHyRgweNzh-27">
                    <mxGeometry y="8" width="20" height="4" as="geometry"/>
                </mxCell>
                <mxCell id="1ssswWglG0BHyRgweNzh-30" value="" style="verticalLabelPosition=bottom;shadow=0;dashed=0;align=center;html=1;verticalAlign=top;strokeWidth=1;shape=mxgraph.mockup.markup.line;strokeColor=#999999;direction=north;fontSize=15;fillColor=default;" vertex="1" parent="1ssswWglG0BHyRgweNzh-27">
                    <mxGeometry x="8" width="4" height="20" as="geometry"/>
                </mxCell>
                <mxCell id="1ssswWglG0BHyRgweNzh-31" value="決定是否同意" style="text;strokeColor=none;align=center;fillColor=none;html=1;verticalAlign=middle;whiteSpace=wrap;rounded=0;strokeWidth=1;fontSize=15;" vertex="1" parent="1ssswWglG0BHyRgweNzh-21">
                    <mxGeometry x="35" y="65" width="97" height="30" as="geometry"/>
                </mxCell>
                <mxCell id="1ssswWglG0BHyRgweNzh-32" value="1" style="text;strokeColor=none;align=center;fillColor=none;html=1;verticalAlign=middle;whiteSpace=wrap;rounded=0;strokeWidth=2;fontSize=16;" vertex="1" parent="1">
                    <mxGeometry x="194" y="179" width="60" height="30" as="geometry"/>
                </mxCell>
                <mxCell id="1ssswWglG0BHyRgweNzh-33" value="1" style="text;strokeColor=none;align=center;fillColor=none;html=1;verticalAlign=middle;whiteSpace=wrap;rounded=0;strokeWidth=2;fontSize=16;" vertex="1" parent="1">
                    <mxGeometry x="393" y="380" width="60" height="30" as="geometry"/>
                </mxCell>
                <mxCell id="1ssswWglG0BHyRgweNzh-34" value="" style="verticalLabelPosition=bottom;shadow=0;dashed=0;align=center;html=1;verticalAlign=top;strokeWidth=1;shape=mxgraph.mockup.markup.line;strokeColor=#999999;fontSize=15;fillColor=default;" vertex="1" parent="1">
                    <mxGeometry x="480" y="450" width="130" height="20" as="geometry"/>
                </mxCell>
                <mxCell id="1ssswWglG0BHyRgweNzh-35" value="後台人員" style="swimlane;strokeWidth=1;fontSize=15;startSize=23;" vertex="1" parent="1">
                    <mxGeometry x="610" y="396.5" width="160" height="127" as="geometry"/>
                </mxCell>
                <mxCell id="1ssswWglG0BHyRgweNzh-36" value="&lt;span style=&quot;color: rgb(255, 255, 255); font-family: &amp;quot;Söhne Mono&amp;quot;, Monaco, &amp;quot;Andale Mono&amp;quot;, &amp;quot;Ubuntu Mono&amp;quot;, monospace; text-align: left; background-color: rgb(13, 13, 13);&quot;&gt;&lt;font style=&quot;font-size: 15px;&quot;&gt;連線戶政系統&lt;/font&gt;&lt;/span&gt;" style="text;strokeColor=none;align=center;fillColor=none;html=1;verticalAlign=middle;whiteSpace=wrap;rounded=0;strokeWidth=1;fontSize=15;" vertex="1" parent="1ssswWglG0BHyRgweNzh-35">
                    <mxGeometry x="30" y="31" width="105" height="30" as="geometry"/>
                </mxCell>
                <mxCell id="1ssswWglG0BHyRgweNzh-37" value="&lt;span style=&quot;color: rgb(255, 255, 255); font-family: &amp;quot;Söhne Mono&amp;quot;, Monaco, &amp;quot;Andale Mono&amp;quot;, &amp;quot;Ubuntu Mono&amp;quot;, monospace; text-align: left; background-color: rgb(13, 13, 13);&quot;&gt;&lt;font style=&quot;font-size: 15px;&quot;&gt;金融機構比對&lt;/font&gt;&lt;/span&gt;" style="text;strokeColor=none;align=center;fillColor=none;html=1;verticalAlign=middle;whiteSpace=wrap;rounded=0;strokeWidth=1;fontSize=15;" vertex="1" parent="1ssswWglG0BHyRgweNzh-35">
                    <mxGeometry x="30" y="61" width="105" height="30" as="geometry"/>
                </mxCell>
                <mxCell id="1ssswWglG0BHyRgweNzh-38" value="" style="group;strokeWidth=2;" vertex="1" connectable="0" parent="1ssswWglG0BHyRgweNzh-35">
                    <mxGeometry x="10" y="35" width="20" height="20" as="geometry"/>
                </mxCell>
                <mxCell id="1ssswWglG0BHyRgweNzh-39" value="" style="verticalLabelPosition=bottom;shadow=0;dashed=0;align=center;html=1;verticalAlign=top;strokeWidth=1;shape=mxgraph.mockup.markup.line;strokeColor=#999999;fontSize=15;fillColor=default;" vertex="1" parent="1ssswWglG0BHyRgweNzh-38">
                    <mxGeometry y="8" width="20" height="4" as="geometry"/>
                </mxCell>
                <mxCell id="1ssswWglG0BHyRgweNzh-40" value="" style="verticalLabelPosition=bottom;shadow=0;dashed=0;align=center;html=1;verticalAlign=top;strokeWidth=1;shape=mxgraph.mockup.markup.line;strokeColor=#999999;fontSize=15;fillColor=default;" vertex="1" parent="1ssswWglG0BHyRgweNzh-38">
                    <mxGeometry y="8" width="20" height="4" as="geometry"/>
                </mxCell>
                <mxCell id="1ssswWglG0BHyRgweNzh-41" value="" style="verticalLabelPosition=bottom;shadow=0;dashed=0;align=center;html=1;verticalAlign=top;strokeWidth=1;shape=mxgraph.mockup.markup.line;strokeColor=#999999;direction=north;fontSize=15;fillColor=default;" vertex="1" parent="1ssswWglG0BHyRgweNzh-38">
                    <mxGeometry x="8" width="4" height="20" as="geometry"/>
                </mxCell>
                <mxCell id="1ssswWglG0BHyRgweNzh-42" value="" style="group;strokeWidth=2;" vertex="1" connectable="0" parent="1ssswWglG0BHyRgweNzh-35">
                    <mxGeometry x="10" y="65" width="20" height="20" as="geometry"/>
                </mxCell>
                <mxCell id="1ssswWglG0BHyRgweNzh-43" value="" style="verticalLabelPosition=bottom;shadow=0;dashed=0;align=center;html=1;verticalAlign=top;strokeWidth=1;shape=mxgraph.mockup.markup.line;strokeColor=#999999;fontSize=15;fillColor=default;" vertex="1" parent="1ssswWglG0BHyRgweNzh-42">
                    <mxGeometry y="8" width="20" height="4" as="geometry"/>
                </mxCell>
                <mxCell id="1ssswWglG0BHyRgweNzh-44" value="" style="verticalLabelPosition=bottom;shadow=0;dashed=0;align=center;html=1;verticalAlign=top;strokeWidth=1;shape=mxgraph.mockup.markup.line;strokeColor=#999999;fontSize=15;fillColor=default;" vertex="1" parent="1ssswWglG0BHyRgweNzh-42">
                    <mxGeometry y="8" width="20" height="4" as="geometry"/>
                </mxCell>
                <mxCell id="1ssswWglG0BHyRgweNzh-45" value="" style="verticalLabelPosition=bottom;shadow=0;dashed=0;align=center;html=1;verticalAlign=top;strokeWidth=1;shape=mxgraph.mockup.markup.line;strokeColor=#999999;direction=north;fontSize=15;fillColor=default;" vertex="1" parent="1ssswWglG0BHyRgweNzh-42">
                    <mxGeometry x="8" width="4" height="20" as="geometry"/>
                </mxCell>
                <mxCell id="1ssswWglG0BHyRgweNzh-46" value="&lt;span style=&quot;color: rgb(255, 255, 255); font-family: &amp;quot;Söhne Mono&amp;quot;, Monaco, &amp;quot;Andale Mono&amp;quot;, &amp;quot;Ubuntu Mono&amp;quot;, monospace; text-align: left; background-color: rgb(13, 13, 13);&quot;&gt;&lt;font style=&quot;font-size: 15px;&quot;&gt;健保局資料比對&lt;/font&gt;&lt;/span&gt;" style="text;strokeColor=none;align=center;fillColor=none;html=1;verticalAlign=middle;whiteSpace=wrap;rounded=0;strokeWidth=1;fontSize=15;" vertex="1" parent="1ssswWglG0BHyRgweNzh-35">
                    <mxGeometry x="30" y="94" width="120" height="30" as="geometry"/>
                </mxCell>
                <mxCell id="1ssswWglG0BHyRgweNzh-47" value="" style="group;strokeWidth=2;" vertex="1" connectable="0" parent="1ssswWglG0BHyRgweNzh-35">
                    <mxGeometry x="10" y="98" width="20" height="20" as="geometry"/>
                </mxCell>
                <mxCell id="1ssswWglG0BHyRgweNzh-48" value="" style="verticalLabelPosition=bottom;shadow=0;dashed=0;align=center;html=1;verticalAlign=top;strokeWidth=1;shape=mxgraph.mockup.markup.line;strokeColor=#999999;fontSize=15;fillColor=default;" vertex="1" parent="1ssswWglG0BHyRgweNzh-47">
                    <mxGeometry y="8" width="20" height="4" as="geometry"/>
                </mxCell>
                <mxCell id="1ssswWglG0BHyRgweNzh-49" value="" style="verticalLabelPosition=bottom;shadow=0;dashed=0;align=center;html=1;verticalAlign=top;strokeWidth=1;shape=mxgraph.mockup.markup.line;strokeColor=#999999;fontSize=15;fillColor=default;" vertex="1" parent="1ssswWglG0BHyRgweNzh-47">
                    <mxGeometry y="8" width="20" height="4" as="geometry"/>
                </mxCell>
                <mxCell id="1ssswWglG0BHyRgweNzh-50" value="" style="verticalLabelPosition=bottom;shadow=0;dashed=0;align=center;html=1;verticalAlign=top;strokeWidth=1;shape=mxgraph.mockup.markup.line;strokeColor=#999999;direction=north;fontSize=15;fillColor=default;" vertex="1" parent="1ssswWglG0BHyRgweNzh-47">
                    <mxGeometry x="8" width="4" height="20" as="geometry"/>
                </mxCell>
                <mxCell id="1ssswWglG0BHyRgweNzh-51" value="1" style="text;strokeColor=none;align=center;fillColor=none;html=1;verticalAlign=middle;whiteSpace=wrap;rounded=0;strokeWidth=2;fontSize=16;" vertex="1" parent="1">
                    <mxGeometry x="462" y="460" width="60" height="30" as="geometry"/>
                </mxCell>
                <mxCell id="1ssswWglG0BHyRgweNzh-52" value="1" style="text;strokeColor=none;align=center;fillColor=none;html=1;verticalAlign=middle;whiteSpace=wrap;rounded=0;strokeWidth=2;fontSize=16;" vertex="1" parent="1">
                    <mxGeometry x="560" y="460" width="60" height="30" as="geometry"/>
                </mxCell>
                <mxCell id="1ssswWglG0BHyRgweNzh-53" value="確認" style="text;strokeColor=none;align=center;fillColor=none;html=1;verticalAlign=middle;whiteSpace=wrap;rounded=0;strokeWidth=2;fontSize=16;" vertex="1" parent="1">
                    <mxGeometry x="344" y="380" width="70" height="30" as="geometry"/>
                </mxCell>
                <mxCell id="1ssswWglG0BHyRgweNzh-54" value="對接" style="text;strokeColor=none;align=center;fillColor=none;html=1;verticalAlign=middle;whiteSpace=wrap;rounded=0;strokeWidth=2;fontSize=16;" vertex="1" parent="1">
                    <mxGeometry x="550" y="430" width="70" height="30" as="geometry"/>
                </mxCell>
                <mxCell id="1ssswWglG0BHyRgweNzh-55" value="&lt;div style=&quot;text-align: left;&quot;&gt;&lt;font face=&quot;Söhne Mono, Monaco, Andale Mono, Ubuntu Mono, monospace&quot; color=&quot;#ffffff&quot;&gt;&lt;span style=&quot;background-color: rgb(13, 13, 13);&quot;&gt;填寫資料&lt;/span&gt;&lt;/font&gt;&lt;/div&gt;" style="text;strokeColor=none;align=center;fillColor=none;html=1;verticalAlign=middle;whiteSpace=wrap;rounded=0;strokeWidth=2;fontSize=16;" vertex="1" parent="1">
                    <mxGeometry x="265" y="150" width="70" height="30" as="geometry"/>
                </mxCell>
                <mxCell id="1ssswWglG0BHyRgweNzh-56" value="1" style="text;strokeColor=none;align=center;fillColor=none;html=1;verticalAlign=middle;whiteSpace=wrap;rounded=0;strokeWidth=2;fontSize=16;" vertex="1" parent="1">
                    <mxGeometry x="393" y="300" width="60" height="30" as="geometry"/>
                </mxCell>
                <mxCell id="1ssswWglG0BHyRgweNzh-57" value="申請人" style="swimlane;strokeWidth=1;fontSize=15;" vertex="1" parent="1">
                    <mxGeometry x="70" y="130" width="140" height="100" as="geometry"/>
                </mxCell>
                <mxCell id="1ssswWglG0BHyRgweNzh-58" value="填寫資料" style="text;strokeColor=none;align=center;fillColor=none;html=1;verticalAlign=middle;whiteSpace=wrap;rounded=0;strokeWidth=1;fontSize=15;" vertex="1" parent="1ssswWglG0BHyRgweNzh-57">
                    <mxGeometry x="35" y="32" width="65" height="30" as="geometry"/>
                </mxCell>
                <mxCell id="1ssswWglG0BHyRgweNzh-59" value="確認資料" style="text;strokeColor=none;align=center;fillColor=none;html=1;verticalAlign=middle;whiteSpace=wrap;rounded=0;strokeWidth=1;fontSize=15;" vertex="1" parent="1ssswWglG0BHyRgweNzh-57">
                    <mxGeometry x="20" y="62" width="95" height="30" as="geometry"/>
                </mxCell>
                <mxCell id="1ssswWglG0BHyRgweNzh-60" value="" style="group;strokeWidth=2;" vertex="1" connectable="0" parent="1ssswWglG0BHyRgweNzh-57">
                    <mxGeometry x="10" y="35" width="20" height="20" as="geometry"/>
                </mxCell>
                <mxCell id="1ssswWglG0BHyRgweNzh-61" value="" style="verticalLabelPosition=bottom;shadow=0;dashed=0;align=center;html=1;verticalAlign=top;strokeWidth=1;shape=mxgraph.mockup.markup.line;strokeColor=#999999;fontSize=15;fillColor=default;" vertex="1" parent="1ssswWglG0BHyRgweNzh-60">
                    <mxGeometry y="8" width="20" height="4" as="geometry"/>
                </mxCell>
                <mxCell id="1ssswWglG0BHyRgweNzh-62" value="" style="verticalLabelPosition=bottom;shadow=0;dashed=0;align=center;html=1;verticalAlign=top;strokeWidth=1;shape=mxgraph.mockup.markup.line;strokeColor=#999999;fontSize=15;fillColor=default;" vertex="1" parent="1ssswWglG0BHyRgweNzh-60">
                    <mxGeometry y="8" width="20" height="4" as="geometry"/>
                </mxCell>
                <mxCell id="1ssswWglG0BHyRgweNzh-63" value="" style="verticalLabelPosition=bottom;shadow=0;dashed=0;align=center;html=1;verticalAlign=top;strokeWidth=1;shape=mxgraph.mockup.markup.line;strokeColor=#999999;direction=north;fontSize=15;fillColor=default;" vertex="1" parent="1ssswWglG0BHyRgweNzh-60">
                    <mxGeometry x="8" width="4" height="20" as="geometry"/>
                </mxCell>
                <mxCell id="1ssswWglG0BHyRgweNzh-64" value="" style="group;strokeWidth=2;" vertex="1" connectable="0" parent="1ssswWglG0BHyRgweNzh-57">
                    <mxGeometry x="10" y="65" width="20" height="20" as="geometry"/>
                </mxCell>
                <mxCell id="1ssswWglG0BHyRgweNzh-65" value="" style="verticalLabelPosition=bottom;shadow=0;dashed=0;align=center;html=1;verticalAlign=top;strokeWidth=1;shape=mxgraph.mockup.markup.line;strokeColor=#999999;fontSize=15;fillColor=default;" vertex="1" parent="1ssswWglG0BHyRgweNzh-64">
                    <mxGeometry y="8" width="20" height="4" as="geometry"/>
                </mxCell>
                <mxCell id="1ssswWglG0BHyRgweNzh-66" value="" style="verticalLabelPosition=bottom;shadow=0;dashed=0;align=center;html=1;verticalAlign=top;strokeWidth=1;shape=mxgraph.mockup.markup.line;strokeColor=#999999;fontSize=15;fillColor=default;" vertex="1" parent="1ssswWglG0BHyRgweNzh-64">
                    <mxGeometry y="8" width="20" height="4" as="geometry"/>
                </mxCell>
                <mxCell id="1ssswWglG0BHyRgweNzh-67" value="" style="verticalLabelPosition=bottom;shadow=0;dashed=0;align=center;html=1;verticalAlign=top;strokeWidth=1;shape=mxgraph.mockup.markup.line;strokeColor=#999999;direction=north;fontSize=15;fillColor=default;" vertex="1" parent="1ssswWglG0BHyRgweNzh-64">
                    <mxGeometry x="8" width="4" height="20" as="geometry"/>
                </mxCell>
            </root>
        </mxGraphModel>
    </diagram>
</mxfile>